<?xml version="1.0" encoding="UTF-8"?>
<svg xmlns="http://www.w3.org/2000/svg" width="55" height="55" viewBox="0 0 28 25"><path d="M4.613 24.198c-.749 0-1.4-.17-1.953-.512a3.533 3.533 0 0 1-1.294-1.343A3.758 3.758 0 0 1 .902 20.5c0-.651.167-1.27.5-1.856l9.412-16.43a3.41 3.41 0 0 1 1.38-1.38A3.703 3.703 0 0 1 14 .358c.627 0 1.225.155 1.794.464.57.309 1.034.773 1.392 1.391l9.4 16.419a3.775 3.775 0 0 1 .5 1.867c0 .668-.155 1.282-.464 1.844a3.443 3.443 0 0 1-1.282 1.343c-.553.341-1.204.512-1.953.512H4.613Zm9.4-8.74c.87 0 1.33-.448 1.379-1.343l.207-5.261c.016-.456-.126-.826-.427-1.11-.301-.294-.692-.44-1.172-.44-.488 0-.883.142-1.184.427-.293.285-.427.655-.403 1.11l.195 5.286c.05.887.517 1.331 1.404 1.331Zm0 4.419c.488 0 .894-.142 1.22-.427.334-.285.5-.66.5-1.123 0-.464-.166-.839-.5-1.123-.326-.285-.732-.428-1.22-.428-.49 0-.9.143-1.234.428-.333.284-.5.659-.5 1.123 0 .463.167.838.5 1.123.342.285.753.427 1.233.427Z" />
  </svg>