<?xml version="1.0" encoding="UTF-8"?>
<svg xmlns="http://www.w3.org/2000/svg" width="55" height="55" viewBox="0 0 18 18"><g>
      <path fill-rule="evenodd" clip-rule="evenodd" d="M0.32698 2.63803C0 3.27976 0 4.11984 0 5.8V12.2C0 13.8802 0 14.7202 0.32698 15.362C0.614601 15.9265 1.07354 16.3854 1.63803 16.673C2.27976 17 3.11984 17 4.8 17H13.2C14.8802 17 15.7202 17 16.362 16.673C16.9265 16.3854 17.3854 15.9265 17.673 15.362C18 14.7202 18 13.8802 18 12.2V5.8C18 4.11984 18 3.27976 17.673 2.63803C17.3854 2.07354 16.9265 1.6146 16.362 1.32698C15.7202 1 14.8802 1 13.2 1H4.8C3.11984 1 2.27976 1 1.63803 1.32698C1.07354 1.6146 0.614601 2.07354 0.32698 2.63803ZM3.5 4.5C2.39543 4.5 1.5 5.39543 1.5 6.5V13.5C1.5 14.6046 2.39543 15.5 3.5 15.5H14.5C15.6046 15.5 16.5 14.6046 16.5 13.5V6.5C16.5 5.39543 15.6046 4.5 14.5 4.5H3.5Z" />
      <path d="M15 7C15 7.55228 14.5523 8 14 8C13.4477 8 13 7.55228 13 7C13 6.44772 13.4477 6 14 6C14.5523 6 15 6.44772 15 7Z" />
      <path d="M12 10C12 10.5523 11.5523 11 11 11C10.4477 11 10 10.5523 10 10C10 9.44772 10.4477 9 11 9C11.5523 9 12 9.44772 12 10Z" />
      <path d="M12 13C12 13.5523 11.5523 14 11 14C10.4477 14 10 13.5523 10 13C10 12.4477 10.4477 12 11 12C11.5523 12 12 12.4477 12 13Z" />
      <path d="M12 7C12 7.55228 11.5523 8 11 8C10.4477 8 10 7.55228 10 7C10 6.44772 10.4477 6 11 6C11.5523 6 12 6.44772 12 7Z" />
      <path d="M9 10C9 10.5523 8.55228 11 8 11C7.44772 11 7 10.5523 7 10C7 9.44772 7.44772 9 8 9C8.55228 9 9 9.44772 9 10Z" />
      <path d="M6 10C6 10.5523 5.55228 11 5 11C4.44772 11 4 10.5523 4 10C4 9.44772 4.44772 9 5 9C5.55228 9 6 9.44772 6 10Z" />
      <path d="M15 10C15 10.5523 14.5523 11 14 11C13.4477 11 13 10.5523 13 10C13 9.44772 13.4477 9 14 9C14.5523 9 15 9.44772 15 10Z" />
      <path d="M9 13C9 13.5523 8.55228 14 8 14C7.44772 14 7 13.5523 7 13C7 12.4477 7.44772 12 8 12C8.55228 12 9 12.4477 9 13Z" />
      <path d="M6 13C6 13.5523 5.55228 14 5 14C4.44772 14 4 13.5523 4 13C4 12.4477 4.44772 12 5 12C5.55228 12 6 12.4477 6 13Z" />
    </g>
  </svg>