<?xml version="1.0" encoding="UTF-8"?>
<svg xmlns="http://www.w3.org/2000/svg" width="55" height="55" viewBox="0 0 55 54"><g fill="none" fill-rule="evenodd">
      <g fill="#fc0">
        <path d="M26.686 6.492V.938a.938.938 0 0 1 1.876 0V6.51a11.882 11.882 0 0 0-1.876-.017zM33.824 8.3l3.234-4.45a.938.938 0 1 1 1.518 1.102L35.32 9.434A11.776 11.776 0 0 0 33.824 8.3zm4.597 5.558l5.214-1.694a.938.938 0 1 1 .58 1.785l-5.243 1.703a11.64 11.64 0 0 0-.55-1.794zm.898 7.313l5.01 1.628a.938.938 0 1 1-.58 1.785l-3.592-1.167a7.26 7.26 0 0 0-.838-2.246zM16.69 22.71l-5.06 1.644a.938.938 0 0 1-.58-1.785l5.058-1.644c.147.615.342 1.211.581 1.785zm-.559-7.342l-4.967-1.614a.938.938 0 1 1 .58-1.785l4.983 1.619a11.64 11.64 0 0 0-.596 1.78zm3.866-6.176l-3.08-4.24a.938.938 0 1 1 1.518-1.103l3.093 4.257c-.54.321-1.052.685-1.53 1.086z" fill-rule="nonzero" />
        <path d="M18.093 19.336a9.5 9.5 0 1 1 18.893-.81 6.863 6.863 0 0 0-5.287-.928A8.627 8.627 0 0 0 25.557 15c-3.123 0-5.921 1.716-7.464 4.336z" />
      </g>
      <path d="M38.13 25.078l-.059-.84c-.194-2.701-2.397-4.818-5.019-4.818-.462 0-.93.068-1.392.202l-.81.234-.57-.636A6.637 6.637 0 0 0 25.356 17c-3.188 0-5.96 2.352-6.587 5.593l-.146.76-.697.286C15.578 24.603 14 27.004 14 29.615c0 3.415 2.737 6.188 6 6.385a4.6 4.6 0 0 0 .377 0H36.5c2.916-.058 5.5-2.488 5.5-5.518 0-2.163-1.228-4.145-3.131-5.053z" fill="#ddd" />
      <path d="M30.157 42.08l-2.815-.043L29.65 38l-3.563.03-3.023 6.023h2.632L22 53.182z" fill="#ff7800" />
    </g>
  </svg>