<?xml version="1.0" encoding="UTF-8"?>
<svg xmlns="http://www.w3.org/2000/svg" width="55" height="55" viewBox="0 0 55 55"><path fill-rule="evenodd" clip-rule="evenodd" d="M17.815 43.083c-.205 1.081-1.553 2.438-2.853 1.712-1.3-.725-1.127-2.239-.393-3.27C15.303 40.493 18 39 18 39s.02 3.002-.185 4.083zm-7 8c-.205 1.081-1.553 2.438-2.853 1.712-1.3-.725-1.127-2.239-.393-3.27C8.303 48.493 11 47 11 47s.02 3.002-.185 4.083zm8 0c-.205 1.081-1.553 2.438-2.853 1.712-1.3-.725-1.127-2.239-.393-3.27C16.303 48.493 19 47 19 47s.02 3.002-.185 4.083zm13 0c-.205 1.081-1.553 2.438-2.853 1.712-1.3-.725-1.127-2.239-.393-3.27C29.303 48.493 32 47 32 47s.02 3.002-.185 4.083zm8 0c-.205 1.081-1.553 2.438-2.853 1.712-1.3-.725-1.127-2.239-.393-3.27C37.303 48.493 40 47 40 47s.02 3.002-.185 4.083zm-1-8c-.205 1.081-1.553 2.438-2.853 1.712-1.3-.725-1.127-2.239-.393-3.27C36.303 40.493 39 39 39 39s.02 3.002-.185 4.083z" fill="#09F" />
    <path fill-rule="evenodd" clip-rule="evenodd" d="M30 42l-2.7.037L29.6 38H26l-3 6h2.696L22 53l8-11z" fill="#F60" />
    <path d="M39.441 21.21l4.888 1.589a.938.938 0 01-.474 1.812l-.106-.027-3.562-1.157a7.262 7.262 0 00-.746-2.217zm-23.334-.285c.147.615.342 1.212.582 1.785l-5.06 1.643a.938.938 0 01-.682-1.745l.102-.04 5.058-1.643zM27.5 8.7a9.5 9.5 0 019.494 9.832 6.856 6.856 0 00-5.294-.934A8.628 8.628 0 0025.556 15c-3.137 0-5.947 1.731-7.485 4.372A9.5 9.5 0 0127.5 8.7zm17.317 4.066a.939.939 0 01-.5 1.143l-.102.04-5.243 1.703a11.649 11.649 0 00-.551-1.795l5.214-1.693a.938.938 0 011.182.602zm-33.18-.825l.106.028 4.983 1.619a11.632 11.632 0 00-.596 1.78l-4.967-1.614a.938.938 0 01.474-1.813zm6.722-8.183l.075.091 3.093 4.257a11.69 11.69 0 00-1.53 1.086l-3.081-4.24a.938.938 0 011.443-1.194zM27.624 0c.481 0 .878.362.932.829l.006.11v5.57a11.882 11.882 0 00-1.877-.017V.938c0-.518.42-.938.939-.938z" fill="#FC0" />
    <path fill-rule="evenodd" clip-rule="evenodd" d="M44.135 3.447v.396l.418.104c.882.426 1.45 1.351 1.447 2.36-.004 1.43-1.393 2.979-2.786 2.979H36.25c-2.127-.007-3.255-1.772-3.25-3.424.004-1.216.74-2.333 1.832-2.779l.324-.132.069-.354C35.52 1.087 36.81-.005 38.29 0a3.08 3.08 0 012.283 1.042l.264.297.376-.108a2.33 2.33 0 01.647-.092c1.217.003 2.188 1.048 2.275 2.308zM38.07 24.238l.06.84.738.351c1.903.908 3.131 2.89 3.131 5.053 0 3.03-2.584 5.46-5.5 5.518H20.377s-.253.008-.377 0c-3.263-.197-6-2.97-6-6.385 0-2.611 1.578-5.012 3.927-5.976l.697-.287.146-.759c.628-3.241 3.4-5.593 6.587-5.593 1.862 0 3.656.809 4.922 2.22l.572.636.81-.234a4.99 4.99 0 011.391-.202c2.622 0 4.825 2.117 5.019 4.818z" fill="#DDD" />
  </svg>