<?xml version="1.0" encoding="UTF-8"?>
<svg xmlns="http://www.w3.org/2000/svg" width="55" height="55" viewBox="0 0 55 46"><g fill="none" fill-rule="evenodd">
      <path d="M47.001 23a9.97 9.97 0 0 1-3.007 7.148c-.116-2.68-1.625-5.12-3.956-6.369-.318-2.76-2.167-5.041-4.635-5.944l-.079-.65c-.496-4.1-3.86-7.256-7.868-7.256-.647 0-1.296.085-1.934.25a9.909 9.909 0 0 0-3.55-2.473A9.5 9.5 0 0 1 38.997 13.2C43.563 14.124 47 18.16 47 23zm-42 1.27c0-.086-.003-.184 0-.27.099-3.06 1.936-5.829 4.629-6.963l.821-.347.172-.919C11.363 11.847 14.63 9 18.386 9c2.194 0 4.309.98 5.802 2.687l.673.77.954-.283a5.738 5.738 0 0 1 1.64-.245c2.983 0 5.507 2.389 5.884 5.497a6.9 6.9 0 0 0-1.838.172A8.627 8.627 0 0 0 25.358 15c-4.06 0-7.573 2.9-8.488 6.919-2.938 1.347-4.869 4.39-4.869 7.696 0 .827.123 1.627.35 2.383-3.965-.092-7.35-3.496-7.35-7.728zm33.131.808l.738.351c1.903.908 3.131 2.89 3.131 5.053 0 3.068-2.676 5.518-5.635 5.518H20.378a4.566 4.566 0 0 1-.377 0c-3.262-.198-6-2.971-6-6.385 0-2.611 1.579-5.012 3.928-5.976l.697-.287.145-.759C19.4 19.352 22.17 17 25.358 17c1.862 0 3.656.809 4.923 2.22l.571.636.81-.234a4.99 4.99 0 0 1 1.392-.202c2.62 0 4.825 2.117 5.018 4.818z" fill="#ddd" />
      <path d="M0 0h50v55H0z" />
      <path d="M21.959 42.032l1.65-1.636a.333.333 0 0 0 0-.47l-.048-.047a.331.331 0 0 0-.47-.003l-1.653 1.638-.55-2.26a.335.335 0 0 0-.405-.244l-.064.016a.337.337 0 0 0-.248.403l.566 2.306-2.307-.563a.337.337 0 0 0-.405.245l-.014.064a.33.33 0 0 0 .245.403l2.254.55-1.647 1.635a.338.338 0 0 0-.003.473l.048.047c.13.13.34.13.47.003l1.652-1.642.555 2.264a.332.332 0 0 0 .402.244l.064-.014a.332.332 0 0 0 .247-.403l-.563-2.306 2.305.562a.333.333 0 0 0 .402-.244l.017-.064a.335.335 0 0 0-.244-.404zm13 0l1.65-1.636a.333.333 0 0 0 0-.47l-.048-.047a.331.331 0 0 0-.47-.003l-1.653 1.638-.55-2.26a.335.335 0 0 0-.405-.244l-.064.016a.337.337 0 0 0-.248.403l.566 2.306-2.307-.563a.337.337 0 0 0-.405.245l-.014.064a.33.33 0 0 0 .245.403l2.254.55-1.647 1.635a.338.338 0 0 0-.003.473l.048.047c.13.13.34.13.47.003l1.652-1.642.555 2.264a.332.332 0 0 0 .402.244l.064-.014a.332.332 0 0 0 .247-.403l-.563-2.306 2.305.562a.333.333 0 0 0 .402-.244l.017-.064a.335.335 0 0 0-.244-.404z" fill="#09f" />
    </g>
  </svg>