<?xml version="1.0" encoding="UTF-8"?>
<svg xmlns="http://www.w3.org/2000/svg" width="55" height="55" viewBox="0 0 12 12"><path d="M2.5 7.5L2.5 9.5L4.5 9.5L2.5 7.5Z" />
    <path d="M4.5 9.5L4.5 10C4.63261 10 4.75979 9.94732 4.85355 9.85355L4.5 9.5ZM2.5 9.5L2 9.5L2 10L2.5 10L2.5 9.5ZM2.5 7.5L2.14645 7.14645C2.05268 7.24021 2 7.36739 2 7.5L2.5 7.5ZM8.5 1.5L8.85355 1.14645C8.75979 1.05268 8.63261 1 8.5 1C8.36739 1 8.24021 1.05268 8.14645 1.14645L8.5 1.5ZM10.5 3.5L10.8536 3.85355C11.0488 3.65829 11.0488 3.34171 10.8536 3.14645L10.5 3.5ZM2.85355 7.85355L8.85355 1.85355L8.14645 1.14645L2.14645 7.14645L2.85355 7.85355ZM8.14645 1.85355L10.1464 3.85355L10.8536 3.14645L8.85355 1.14645L8.14645 1.85355ZM10.1464 3.14645L4.14645 9.14645L4.85355 9.85355L10.8536 3.85355L10.1464 3.14645ZM6.64645 3.35355L8.64645 5.35355L9.35355 4.64645L7.35355 2.64645L6.64645 3.35355ZM3 9.5L3 7.5L2 7.5L2 9.5L3 9.5ZM4.5 9L2.5 9L2.5 10L4.5 10L4.5 9ZM2.14645 7.85355L4.14645 9.85355L4.85355 9.14645L2.85355 7.14645L2.14645 7.85355Z" />
  </svg>