<?xml version="1.0" encoding="UTF-8"?>
<svg xmlns="http://www.w3.org/2000/svg" width="55" height="55" viewBox="0 0 20 20"><path d="M12.246 7.947C13.756 9.455 16.009 9.74 20 9.795A9.997 9.997 0 0 0 10.396.009c.048 4.105.319 6.406 1.85 7.938Zm-4.299 0C9.48 6.414 9.75 4.11 9.797 0A9.998 9.998 0 0 0 0 9.796c4.112-.047 6.414-.318 7.947-1.85Zm4.299 4.298c-1.507 1.508-1.794 3.76-1.848 7.745a9.996 9.996 0 0 0 9.593-9.592c-3.985.054-6.237.34-7.745 1.848v-.001Zm-4.299 0c-1.532-1.53-3.832-1.802-7.937-1.85C.216 15.67 4.495 19.892 9.795 20c-.054-3.992-.339-6.246-1.848-7.754v-.001Z" fill="#000" />
  </svg>