<?xml version="1.0" encoding="UTF-8"?>
<svg xmlns="http://www.w3.org/2000/svg" width="55" height="55" viewBox="0 0 24 20"><path d="M1.65 8.61c6.443-2.822 10.74-4.683 12.887-5.582C20.677.46 21.951.015 22.783 0c.183-.003.59.043.857.259.22.182.283.429.314.602.027.172.065.567.034.874-.331 3.514-1.771 12.041-2.503 15.977-.308 1.665-.919 2.224-1.51 2.278-1.284.119-2.258-.853-3.5-1.672-1.945-1.282-3.043-2.08-4.932-3.331-2.182-1.446-.767-2.24.477-3.54.324-.34 5.98-5.511 6.088-5.98.013-.059.027-.278-.104-.393-.128-.116-.318-.076-.456-.045-.197.045-3.301 2.11-9.324 6.196-.88.609-1.678.906-2.396.89-.787-.017-2.307-.449-3.436-.817-1.381-.453-2.483-.692-2.386-1.46.048-.4.597-.81 1.644-1.228Z" fill="#fff" />
  </svg>