<?xml version="1.0" encoding="UTF-8"?>
<svg xmlns="http://www.w3.org/2000/svg" width="55" height="55" viewBox="0 0 54 54"><g fill="none" fill-rule="evenodd">
      <path stroke="#F1F1F1" d="M40.8 41.2C34 48.158 28 51.228 20.7 49.181c-7.3-2.046-11.1-6.753-13.6-16.27-2.5-9.516-1.7-16.167 3.6-21.59C16 5.898 22.1 4.977 31.4 7.535c9.3 2.558 14.4 6.549 16.4 14.018 2 7.47-.2 12.791-7 19.647z" />
      <path stroke="#E1E1E1" d="M46 36.288c-2.8 9.312-6 7.368-14.8 10.745-8.8 3.376-13.9.614-19-5.117-5.1-5.73-6.5-14.018-4.3-21.386 2.2-7.367 7.8-9.21 14.5-11.767 6.7-2.558 14.8-2.558 19.3 2.967 4.5 5.526 7.1 15.247 4.3 24.558z" />
    </g>
  </svg>