<?xml version="1.0" encoding="UTF-8"?>
<svg xmlns="http://www.w3.org/2000/svg" width="55" height="55" viewBox="0 0 54 54"><g fill="none" fill-rule="evenodd">
      <path stroke="#F1F1F1" d="M42.176 41.49c-7.441 7.204-14.139 10.394-22.112 8.336-7.973-2.161-11.056-7.203-13.82-17.082-2.764-9.879-3.083-16.877 2.764-22.536 5.847-5.66 12.545-6.586 22.75-3.91 10.206 2.675 15.947 6.894 18.073 14.612 2.126 7.718-.213 13.377-7.655 20.58z" />
      <path stroke="#D8D8D8" d="M47.386 34.493c-2.977 9.364-6.379 7.41-15.734 10.805-9.355 3.396-14.777.617-20.199-5.145-5.422-5.763-6.06-13.686-3.72-20.993 2.338-7.306 7.335-9.673 14.457-12.348 7.123-2.676 15.84-2.47 20.624 2.984 4.784 5.454 7.548 15.333 4.572 24.697z" />
      <path stroke="#C6C6C6" d="M23.36 45.71c-5.954-1.235-7.76-1.647-11.482-5.763-3.72-4.116-9.886-13.378-7.016-21.404 2.87-8.027 10.737-6.997 15.415-8.13 4.677-1.131 9.249-2.572 12.97-1.955 3.72.618 6.165 1.647 10.312 6.072 4.146 4.425 5.209 5.35 5.634 9.776.425 4.424-1.595 6.277-4.678 11.422-3.083 5.145-3.508 8.644-7.76 10.393-4.253 1.75-7.442.823-13.395-.411z" />
    </g>
  </svg>