<?xml version="1.0" encoding="UTF-8"?>
<svg xmlns="http://www.w3.org/2000/svg" width="55" height="55" viewBox="0 0 54 54"><g fill="none" fill-rule="evenodd">
      <path stroke="#DBDBDB" d="M45.4 34.6c-2.8 9.1-6 7.2-14.8 10.5s-13.9.6-19-5-6.5-13.7-4.4-20.9c2.1-7.2 7.8-9 14.5-11.5S36.5 5.2 41 10.6c4.6 5.3 7.2 14.9 4.4 24z" />
      <path stroke="#CACACA" d="M23.2 43.8c-5.6-1.2-7.2-.7-10.7-4.7-3.5-4-2.9-5.5-3.5-11.2-.6-5.7-4.9-7-2.8-12.6 2.1-5.6 8.2-3.6 13.5-6 5.3-2.4 6.2-3.8 11.4-2.6 5.2 1.2 5.5 2.8 9.4 7.1 3.9 4.3 5.5 4.8 6 10.1s-1 6.1-3.9 11.1-2.5 9.7-6.5 11.5c-3.9 1.8-7.3-1.6-12.9-2.7z" />
      <path stroke="#A6A6A6" d="M34.8 44c-8.2 6.4-15.9 6.7-21.4 2.2-5.5-4.5-6.7-11.4-5.8-20.9.9-9.5 3.6-15.8 10.4-18.8 6.8-3 11.3.6 18.9 6.2 7.6 5.6 13.6 10.1 12.4 16.1-1.2 6-6.3 8.8-14.5 15.2z" />
    </g>
  </svg>