<?xml version="1.0" encoding="UTF-8"?>
<svg xmlns="http://www.w3.org/2000/svg" width="55" height="55" viewBox="0 0 54 54"><g fill="none" fill-rule="evenodd">
      <path stroke="#FFDC1D" d="M22.5 45.1c-5.8-2.9-7.6-1-11.1-5.2S8.6 34 8.2 28c-.4-6-4.9-7.6-2.5-13.4 2.4-5.8 8.7-3.5 14.3-5.8 5.6-2.3 7.9-5.2 12.2-4.1 4.3 1.1 4.8 4.6 8.6 9.3 3.8 4.7 7.4 3.2 8.3 8.6.9 5.4-2 7.1-4 10.6s-2.4 13.4-7.7 15.7c-4.8 2-9.2-.9-14.9-3.8z" />
      <path stroke="#FFC400" d="M44.3 37.8c-3.9 2.9-6.8 4.7-11.6 7.9-4.5 3-8.4 5.1-11.9 4.5C13.1 48.8 9.6 42.6 7 33c-2.6-9.6-1.4-15.6 4.1-21.1 5.5-5.5 12.1-6.1 21.7-3.5 9.6 2.6 14.3 5.5 16.4 13.1 2.1 7.6.7 12.1-4.9 16.3z" />
      <path stroke="#FFB400" d="M17.2 46.9c-2.8-1.3-3.5-5.7-5.7-9.2-2.7-4.2-7.2-5.6-7.2-10.5 0-5.1 3-6.1 6.5-10.2s3.7-7.7 9.2-9.9c5.5-2.2 9 .3 15.3 3.8 6.3 3.5 11.3 5.3 12.2 9.5.9 4.2-1.9 6.2-4 10.1-2.1 3.9-.4 9.7-5.1 14-2.2 2-7.8 2.6-10.3 2.4-3.6-.2-6.1 2.3-10.9 0z" />
    </g>
  </svg>