<?xml version="1.0" encoding="UTF-8"?>
<svg xmlns="http://www.w3.org/2000/svg" width="55" height="55" viewBox="0 0 54 54"><g fill="none" fill-rule="evenodd">
      <path stroke="#FFB400" d="M17 39.821c-5.6-4.404-6.5-3.621-8-8.808-1.5-5.187-.2-6.264 1.8-11.843s-1.5-8.515 3-12.821c4.5-4.306 9.2.098 15.1.196s7.5-.881 11.9 2.349c4.4 3.23 3.9 4.893 5.6 10.472 1.7 5.579 3 6.753 1.1 11.843-1.8 5.089-4.8 4.991-9.2 9.2-4.4 4.208-4.3 9.2-9.9 9.2-5.5.097-5.8-5.286-11.4-9.788z" />
      <path stroke="#FF8200" d="M19.9 43.345c-10.2-1.175-14.3-3.328-15.1-9.2C4 28.272 9.7 21.42 16.9 15.549c7.2-5.872 12-9.787 18.9-7.243 6.9 2.545 7 8.417 8.4 17.52 1.4 9.004 2.4 16.148-2.6 19.378-5 3.23-11.5-.685-21.7-1.86z" />
      <path stroke="#FF6300" d="M23.5 42.366c-4.7-1.86-9.5-.196-12.5-3.72-2.4-2.74 0-7.046-.5-11.157-.6-4.306-3.3-5.285-2.5-9.395.7-3.817 4.6-4.503 6.9-6.851 2-1.958 3.5-5.188 6.5-6.166 4.4-1.37 8.1 2.74 14.9 5.285 6.8 2.544 9.7 3.523 12.1 8.808 2.4 5.285-.5 7.439-3.1 14.094-2.6 6.655-3.3 12.919-8.4 14.485-5.1 1.566-8.6-3.621-13.4-5.383z" />
    </g>
  </svg>