<?xml version="1.0" encoding="UTF-8"?>
<svg xmlns="http://www.w3.org/2000/svg" width="55" height="55" viewBox="0 0 54 54"><g fill="none" fill-rule="evenodd">
      <path stroke="#FF6300" d="M9.4 32.923c-3.1-2.757-6.3-7.557-5.5-10.927.8-3.37 3-5.107 11.8-7.966 8.8-2.86 21.4-11.54 26.8-6.536 5.4 5.004 4.1 10.62 2.1 19.812-2 9.192-1.5 14.196-7.1 16.239-2.4.919-4.8-.715-8.3-.715-3.3 0-7.6 2.45-11.9 0-3.5-1.94-4-6.434-7.9-9.907z" />
      <path stroke="#FF4700" d="M20.7 41.502C13.2 38.54 9 40.174 6.6 34.864c-2.4-5.31.5-8.17 3.4-15.728 2.9-7.557 2-11.54 8-14.298 6-2.757 8.4.613 15.8 3.473s11.4 2.144 14.1 8.17c2.7 6.025-.5 8.476-3.4 16.034-2.8 7.557-2.1 11.54-8 14.196-5.9 2.655-8.3-2.247-15.8-5.209z" />
      <path stroke="red" d="M38.6 41.4c-6.5 5.004-6.3 9.396-11.3 9.498-5 .102-7.4-4.698-12.2-7.558-4.8-2.86-10.7-2.042-11.6-7.66-.9-5.616 5.9-6.944 8.3-14.91 2.4-7.966-3.2-12.255.8-15.319s5.5 2.962 13.7 2.758c8.2-.205 9.7-5.72 13.8-2.758 4.1 2.962-.2 6.536 2.5 14.502 2.7 7.864 9.4 8.885 7.9 13.787-1.4 4.8-5.4 2.554-11.9 7.66z" />
    </g>
  </svg>