<?xml version="1.0" encoding="UTF-8"?>
<svg xmlns="http://www.w3.org/2000/svg" width="55" height="55" viewBox="0 0 54 54"><g fill="none" fill-rule="evenodd">
      <path stroke="#E10000" d="M23.078 47.323c-4.902-.919-9.02 3.37-13.333-.612-4.314-3.983-.588-11.54-1.96-17.158C6.411 23.936.823 22.2 2.391 16.89c1.569-5.31 7.647-2.45 11.667-6.434 4.02-3.983 3.823-6.23 7.647-7.046 3.823-.818 5 2.553 10.392 4.187 5.392 1.634 8.333-1.43 11.177 1.634 2.843 3.064-1.471 6.332-.099 11.949 1.373 5.617 9.216 6.74 7.746 11.949-1.471 5.208-7.647 2.349-11.57 6.332-3.92 3.983-3.136 9.497-6.568 10.519-3.431 1.021-4.706-1.736-9.706-2.656z" />
      <path stroke="#B40000" d="M29.549 42.523c-4.804 1.328-5.49 3.78-9.706 2.554-4.216-1.124-3.627-3.575-7.157-7.15-3.53-3.574-5.882-3.063-6.96-7.353-1.079-4.289 1.176-5.004 2.549-10.008 1.372-5.004-.393-6.74 2.647-9.906 3.039-3.166 4.803-1.532 9.705-2.86 4.902-1.328 5.49-3.779 9.706-2.553 4.216 1.225 3.628 3.574 7.157 7.149 3.53 3.676 7.745 2.042 8.824 6.332 1.078 4.289-3.04 6.025-4.412 11.03-1.275 5.004.392 6.74-2.745 9.906-3.04 3.268-4.804 1.532-9.608 2.86z" />
      <path stroke="#850000" d="M29.549 41.502c-7.745 3.268-9.314 7.864-13.431 5.617-4.118-2.247-1.177-9.293-3.824-17.566C9.647 21.281 1.51 17.81 2.882 13.213c1.373-4.596 10.098-1.328 18.138-3.166 8.039-1.838 11.274-7.353 15.784-4.8 4.51 2.553 1.078 8.476 3.333 16.647 2.255 8.17 10.883 13.072 7.843 17.77-3.039 4.698-10.588-1.532-18.431 1.838z" />
    </g>
  </svg>