<?xml version="1.0" encoding="UTF-8"?>
<svg xmlns="http://www.w3.org/2000/svg" width="55" height="55" viewBox="0 0 54 54"><g fill="none" fill-rule="evenodd">
      <path stroke="#D60000" d="M12.7 37.696c-9-5.4-9.9-9.865-9.9-14.227 0-4.361 3.6-9.865 12.6-12.565 9-2.7 21.1-8.412 26.4-3.116 5.3 5.297 3.7 11.008 1.4 20.458-2.3 9.45-4.2 16.823-10.1 17.966-5.9 1.142-11.4-3.116-20.4-8.516z" />
      <path stroke="#AC0000" d="M17.1 42.473c-6.7-4.05-13.4-3.22-15-9.554-1.6-6.334 4.6-8.827 8.5-15.784 3.9-6.958 3.7-11.008 9.8-12.67 6.1-1.661 7.9 1.766 14.6 5.712 6.7 3.946 10.6 3.842 12.2 10.177 1.6 6.334-1.8 8.204-5.7 15.265-3.9 7.062-3.7 11.008-9.8 12.67-6.2 1.765-8-1.766-14.6-5.816z" />
      <path stroke="#6E0000" d="M37.2 39.565c-7.2 4.466-4.9 14.123-10 13.708-5.1-.52-1.5-7.27-8-13.188-6.5-5.92-16.1-.831-17.3-7.581-1.2-6.75 9.5-6.542 12.8-14.539C18 9.97 11.9 4.154 16.3 1.454c4.4-2.7 5.3 3.634 13.7 4.465 8.4.727 10.6-4.88 14.5-1.35 3.9 3.531-.8 6.854 1.1 15.37 1.9 8.515 9.5 9.761 7.5 14.642-2 4.88-8.6.519-15.9 4.984z" />
      <path stroke="#100" d="M19.6 43.615C12 41.642 6.9 45.381 4.2 42.058c-2.7-3.323.6-6.023 0-14.123-.5-8.1-5.8-10.904-2.7-16.097 3.1-5.192 7.8-1.453 15.1-4.465C23.9 4.362 24.4.415 30 1.87c5.6 1.454 4.1 5.089 9.1 11.32 5 6.23 10.9 5.296 11.3 11.319.4 6.023-7.1 5.711-11.3 12.565-4.2 6.854-1 11.942-5 13.396-4 1.454-7-4.984-14.5-6.854z" />
    </g>
  </svg>