<?xml version="1.0" encoding="UTF-8"?>
<svg xmlns="http://www.w3.org/2000/svg" width="55" height="55" viewBox="0 0 18 18"><path fill-rule="evenodd" clip-rule="evenodd" d="M9 16.7C13.2526 16.7 16.7 13.2526 16.7 9C16.7 4.74741 13.2526 1.3 9 1.3C4.74741 1.3 1.3 4.74741 1.3 9C1.3 13.2526 4.74741 16.7 9 16.7ZM9 18C13.9706 18 18 13.9706 18 9C18 4.02944 13.9706 0 9 0C4.02944 0 0 4.02944 0 9C0 13.9706 4.02944 18 9 18ZM10 7.5V13H10.5C10.7761 13 11 13.2239 11 13.5C11 13.7761 10.7761 14 10.5 14H7.5C7.22386 14 7 13.7761 7 13.5C7 13.2239 7.22386 13 7.5 13H8V8.5H7.5C7.22386 8.5 7 8.27614 7 8C7 7.72386 7.22386 7.5 7.5 7.5H10ZM9 6.375C9.75939 6.375 10.375 5.75939 10.375 5C10.375 4.24061 9.75939 3.625 9 3.625C8.24061 3.625 7.625 4.24061 7.625 5C7.625 5.75939 8.24061 6.375 9 6.375Z" />
  </svg>