<?xml version="1.0" encoding="UTF-8"?>
<svg xmlns="http://www.w3.org/2000/svg" width="55" height="55" viewBox="0 0 18 18"><g clip-path="url(#clip0)">
      <path d="M0 0H18V18H0V0Z" fill="#00A5E0" />
      <path d="M1.33333 9L2 10.0909L2.66667 9L2 7.90909L1.33333 9Z" fill="#F9F400" />
      <path d="M3.33333 5.5L4 4.09091L3.33333 3L0.666667 7.90909L1.33333 9M0.666667 5.5L0 4.09091L0.666667 3L3.33333 7.90909L2.66667 9M3.33333 12.5455L4 13.9091L3.33333 15L2 12.5455M2 12.5455L0.666667 10.0909L1.33333 9M2 12.5455L3.33333 10.0909L2.66667 9M2 12.5455L0.666667 15L0 13.9091L0.666667 12.5455M1.33333 9L2 10.0909L2.66667 9M1.33333 9L2 7.90909L2.66667 9" stroke="#F9F400" stroke-width=".5" stroke-linecap="round" stroke-linejoin="round" />
      <path d="M8 8C8.66667 9.33333 11 11 13 11M12 13.5C12.5 12.5 13.8 12 15 12M16.5 11C17.8333 10.3333 20.5 9.8 20.5 7" stroke="#F9F400" stroke-linecap="round" stroke-linejoin="round" />
      <circle cx="14" cy="7" r="3" fill="#F9F400" />
    </g>
    <defs>
      <clipPath id="clip0">
        <path d="M0 9C0 4.02944 4.02944 0 9 0C13.9706 0 18 4.02944 18 9C18 13.9706 13.9706 18 9 18C4.02944 18 0 13.9706 0 9Z" fill="#fff" />
      </clipPath>
    </defs>
  </svg>