<?xml version="1.0" encoding="UTF-8"?>
<svg xmlns="http://www.w3.org/2000/svg" width="55" height="55" viewBox="0 0 158 33"><g fill="none" fill-rule="evenodd">
      <path fill="#FFF" fill-rule="nonzero" d="M30.5 14.857v12.107c0 1.855-1.05 3.098-2.336 3.748C25.016 32.304 21.507 33 16.364 33 6.813 33 0 26.11 0 16.678 0 6.902 7.175 0 17.988 0c2.906 0 5.345.248 7.733.744 2.425.268 3.579 2.265 3.579 4.149a4 4 0 01-.016.362l-.345 3.792a3.934 3.934 0 01-.725 2.107 4.156 4.156 0 012.287 3.703zm4.223 13.536a4 4 0 01.021-.41l.343-3.326a3.999 3.999 0 011.17-2.591c-1.237-1.468-1.887-3.367-1.887-5.78 0-5.787 4.305-9 10.782-9 2.53 0 4.78.252 6.714.655a4 4 0 01.99.346c.51.258.969.587 1.411 1.146a4.113 4.113 0 01.872 2.94l-.308 3.289a3.93 3.93 0 01-.69 2.05c1.402 1.554 2.11 3.569 2.11 5.967C56.252 29.8 52.186 33 45.047 33c-2.59 0-4.5-.184-6.718-.53a4.09 4.09 0 01-3.605-4.077zM45.9 21.539a.111.111 0 00-.003 0h.003zm-.48 4.702a.79.79 0 00-.03-.011l.03.011zm-.744-12.7a.917.917 0 00.02.008l-.02-.007zm-13.97-5.898h3.885a4.152 4.152 0 014.141 4.143V28.5a4.151 4.151 0 01-4.141 4.142h-3.886a4.151 4.151 0 01-4.141-4.142V11.786a4.152 4.152 0 014.141-4.143zm0-6.25h3.885a4.152 4.152 0 014.141 4.143v4.179a4.151 4.151 0 01-4.141 4.142h-3.886a4.152 4.152 0 01-4.141-4.142v-4.18a4.152 4.152 0 014.141-4.142zm33.487 6.146c2.113 0 3.862.485 5.28 1.298 1.55-.8 3.428-1.298 5.605-1.298 5.936 0 10.31 4.057 10.31 10.442v10.526a4.15 4.15 0 01-4.141 4.14h-4.042a4.148 4.148 0 01-3.44-1.838 4.149 4.149 0 01-3.438 1.838H66.39a4.15 4.15 0 01-3.457-1.864 4.149 4.149 0 01-3.457 1.864h-3.935a4.15 4.15 0 01-4.142-4.14V12.033a4.15 4.15 0 014.142-4.141h3.935c.438 0 .861.068 1.259.196a10.857 10.857 0 013.457-.549zm-1.05 11.607a.352.352 0 01.02.003l-.02-.003zm-.458.001a.376.376 0 00.016-.006l-.016.006zm51.777 1.983a4 4 0 01.149-.002c1.99 0 3.922 1.469 4.094 3.77l.341 3.019a4.112 4.112 0 01-.884 3.04c-.443.55-.898.872-1.403 1.126a4 4 0 01-.611.245c-1.232.382-3.176.672-5.083.672-5.753 0-8.822-3.818-8.822-8.576v-5.109a4.153 4.153 0 01-2.978-3.974v-3.308a4.154 4.154 0 012.978-3.974V6.224a4.15 4.15 0 014.142-4.14h3.935a4.15 4.15 0 014.142 4.14v1.668h.396a4.15 4.15 0 014.142 4.14v3.31a4.15 4.15 0 01-4.142 4.14h-.396v1.648zm17.918-.86c0-7.27 5.207-12.73 12.793-12.73 7.587 0 12.828 5.463 12.828 12.73S152.76 33 145.172 33c-7.586 0-12.793-5.46-12.793-12.73zm-28.816 4.354l.404 3.04a4.11 4.11 0 01-.875 3.118 4.027 4.027 0 01-1.428 1.137 4 4 0 01-.294.13c-1.423.565-4.376.95-7.219.95-8.35 0-13.112-5.159-13.112-12.73 0-7.285 5.07-12.73 12.651-12.73 7.185 0 11.233 5.221 11.233 12.062v1.76a4.13 4.13 0 01-1.377 3.078c.007.06.012.122.017.185zm-10.3-2.993l-.003-.004.002.004zm42.564 2.992l.404 3.04a4.112 4.112 0 01-.878 3.12c-.446.555-.908.88-1.42 1.133a4 4 0 01-.3.133c-1.423.565-4.375.95-7.217.95-8.35 0-13.112-5.159-13.112-12.73 0-7.285 5.07-12.73 12.65-12.73 7.185 0 11.234 5.221 11.234 12.062v1.76c0 1.22-.534 2.32-1.378 3.078.007.06.013.122.017.184zm-10.3-2.992l-.003-.004.003.004z" />
      <path fill="#2396EB" d="M16.257 14.714c-.07 0-.141.072-.141.143V18.5c0 .072.07.143.141.143h6.005v5.678c-1.413.321-3.179.536-5.581.536-5.228 0-8.266-3.178-8.266-8.178 0-5 3.038-8.679 9.15-8.679 3.496 0 5.439.393 7.17.893.106 0 .212-.036.212-.107l.353-3.893c0-.071-.035-.179-.141-.179C23.18 4.286 20.955 4 17.988 4 8.945 4 4 9.536 4 16.678 4 23.822 8.945 29 16.363 29c4.875 0 7.665-.678 9.997-1.857.07-.036.14-.108.14-.179V14.857c0-.071-.07-.143-.14-.143H16.257zM45.046 29c5.333 0 7.206-1.822 7.206-5.322 0-3.714-2.438-4.642-6.111-5.607-2.543-.678-3.886-.821-3.886-1.857 0-1.357 1.06-1.535 3.109-1.535 2.013 0 3.956.321 5.298.821.07 0 .177-.036.177-.107L51.157 12c0-.072-.035-.107-.106-.143-1.2-.25-3.25-.572-5.9-.572-4.52 0-6.781 1.75-6.781 5 0 3.18 1.73 4.465 4.98 5.287 3.391.857 4.734.963 4.734 2.464 0 1.107-.707 1.571-3.426 1.571-2.438 0-4.098-.393-5.476-.75-.035 0-.105.036-.105.107l-.354 3.429c0 .071.036.107.106.107 1.13.178 3.25.5 6.217.5zM30.704 11.643c-.07 0-.141.071-.141.143V28.5c0 .071.07.142.141.142h3.886c.07 0 .141-.07.141-.142V11.786c0-.072-.07-.143-.141-.143h-3.886zm0-6.25c-.07 0-.141.072-.141.143v4.179c0 .071.07.142.141.142h3.886c.07 0 .141-.071.141-.142v-4.18c0-.07-.07-.142-.141-.142h-3.886z" />
      <path fill="#151515" d="M59.618 12.033v.704c0 .316-.07.774-.142.985.142-.211.355-.493.532-.669 1.064-.985 2.518-1.514 4.184-1.514 3.262 0 4.644 1.831 5.07 2.5.426-.528 2.305-2.5 5.815-2.5 3.474 0 6.31 2.042 6.31 6.442v10.526c0 .07-.07.14-.141.14h-4.042c-.071 0-.142-.07-.142-.14V17.805c0-1.83-1.453-2.675-3.297-2.675s-3.298.845-3.298 2.675v10.702c0 .07-.07.14-.141.14H66.39c-.07 0-.142-.07-.142-.14V17.805c0-1.83-1.489-2.675-3.333-2.675s-3.297.845-3.297 2.675v10.702c0 .07-.07.14-.142.14h-3.935c-.071 0-.142-.07-.142-.14V12.033c0-.07.07-.141.142-.141h3.935c.071 0 .142.07.142.14zm55.24 3.45c.07 0 .141-.07.141-.141v-3.31c0-.07-.07-.14-.142-.14h-4.396V6.224c0-.07-.071-.14-.142-.14h-3.935c-.071 0-.142.07-.142.14v5.668h-2.837c-.07 0-.141.07-.141.14v3.31c0 .07.07.14.141.14h2.837v8.942c0 2.006.922 4.576 4.822 4.576 1.809 0 3.333-.317 3.9-.493.071-.035.106-.07.106-.14l-.354-3.133c0-.071-.07-.106-.106-.106-.71.246-1.596.386-2.624.386s-1.383-.492-1.525-1.373v-8.659h4.396zm21.52 4.786c0-4.857 3.227-8.73 8.794-8.73 5.566 0 8.828 3.873 8.828 8.73 0 4.859-3.262 8.731-8.828 8.731-5.567 0-8.793-3.872-8.793-8.73zm13.368 0c0-2.85-1.383-5.385-4.574-5.385s-4.539 2.535-4.539 5.386 1.347 5.386 4.539 5.386c3.19 0 4.574-2.535 4.574-5.386zm-55.134 5.387c2.447 0 4.255-.563 4.822-.775.07 0 .142.035.142.106l.426 3.203c0 .07-.036.106-.107.141-.709.281-3.049.669-5.744.669-6.594 0-9.112-3.872-9.112-8.73 0-4.858 3.085-8.73 8.651-8.73 5.212 0 7.233 3.872 7.233 8.06v1.76c0 .071-.07.142-.141.142H89.259c0 2.429 1.63 4.154 5.353 4.154zm-5.353-7.498h7.764c0-1.972-1.205-3.274-3.439-3.274-2.73 0-4.325 1.338-4.325 3.274zm37.618 7.498c2.446 0 4.254-.563 4.822-.775.07 0 .142.035.142.106l.425 3.203c0 .07-.035.106-.107.141-.709.281-3.049.669-5.743.669-6.594 0-9.112-3.872-9.112-8.73 0-4.858 3.085-8.73 8.65-8.73 5.213 0 7.234 3.872 7.234 8.06v1.76a.153.153 0 01-.142.142h-11.523c0 2.429 1.63 4.154 5.354 4.154zm2.41-7.498c0-1.972-1.205-3.274-3.438-3.274-2.73 0-4.326 1.338-4.326 3.274h7.765z" />
    </g>
  </svg>