<?xml version="1.0" encoding="UTF-8"?>
<svg xmlns="http://www.w3.org/2000/svg" width="55" height="55" viewBox="0 0 113 20"><path d="M67.599 6.156c-4.197 0-6.516 2.952-6.516 6.626 0 3.696 1.901 6.626 6.864 6.626 2.017 0 3.78-.303 4.313-.512.046-.023.07-.046.07-.116l-.326-2.418c0-.046-.046-.093-.092-.093-.418.163-1.786.581-3.64.581-2.807 0-4.036-1.302-4.036-3.162h8.673c.046 0 .116-.046.116-.093v-1.348c.023-3.139-1.508-6.091-5.426-6.091Zm-3.34 5.045c0-1.465 1.206-2.488 3.247-2.488 1.67 0 2.597.977 2.597 2.488H64.26Zm18.83 5.3c-.534.187-1.206.303-1.971.303-.766 0-1.044-.372-1.16-1.046V9.155h3.316c.046 0 .093-.047.093-.093V6.528c0-.047-.047-.116-.093-.116h-3.316V2.134c0-.07-.046-.116-.093-.116h-2.968c-.046 0-.116.046-.116.116v4.3h-2.133c-.046 0-.116.047-.116.117v2.511c0 .046.046.093.116.093h2.133v6.812c0 1.534.696 3.487 3.64 3.487 1.369 0 2.505-.232 2.946-.372.046-.023.07-.046.07-.116l-.256-2.371c0-.07-.07-.093-.093-.093Zm22.515-10.345c-4.197 0-6.631 2.952-6.631 6.626 0 3.696 2.434 6.626 6.631 6.626 4.198 0 6.656-2.93 6.656-6.626 0-3.674-2.458-6.626-6.656-6.626Zm0 10.74c-2.411 0-3.408-1.929-3.408-4.091s1.02-4.092 3.408-4.092c2.412 0 3.432 1.93 3.432 4.092.024 2.162-1.02 4.092-3.432 4.092ZM54.08 6.157c-2.644 0-4.058 1.488-4.383 1.906-.324-.511-1.368-1.906-3.826-1.906-1.252 0-2.342.395-3.154 1.14-.139.139-.3.348-.347.51h-.047c.047-.162.116-.51.116-.743v-.535c0-.047-.046-.116-.116-.116h-2.968c-.046 0-.092.046-.092.116v12.53c0 .047.046.094.092.094h2.968c.047 0 .116-.047.116-.093v-8.137c0-1.395 1.09-2.046 2.481-2.046 1.392 0 2.505.65 2.505 2.046v8.137c0 .046.046.093.116.093h2.968c.046 0 .093-.047.093-.093v-8.137c0-1.395 1.09-2.046 2.48-2.046 1.392 0 2.482.65 2.482 2.046v8.137c0 .046.046.093.116.093h3.038c.046 0 .115-.047.115-.093V11.06c0-3.347-2.133-4.905-4.753-4.905Zm37.565 0c-4.197 0-6.516 2.952-6.516 6.649s1.902 6.626 6.864 6.626c2.04 0 3.803-.302 4.336-.512.047-.023.093-.046.093-.116l-.325-2.418c0-.046-.046-.093-.093-.093-.44.163-1.785.582-3.64.582-2.806 0-4.035-1.302-4.035-3.162h8.673c.046 0 .116-.047.116-.093V12.27c-.024-3.162-1.554-6.114-5.473-6.114Zm-3.34 5.045c0-1.465 1.207-2.488 3.247-2.488 1.693 0 2.597.977 2.597 2.488h-5.843Z" fill="currentColor" />
    <path d="M23.619 1.47h-2.945c-.046 0-.116.046-.116.115v3.116c0 .046.046.093.116.093h2.945c.046 0 .116-.047.116-.093V1.585c-.023-.046-.07-.116-.116-.116Zm0 4.872h-2.945c-.046 0-.116.047-.116.116V18.99c0 .047.046.093.116.093h2.945c.046 0 .116-.046.116-.093V6.435c-.023-.046-.07-.093-.116-.093Zm-6.215 2.302H9.752c-.046 0-.093.046-.093.116v2.743c0 .047.047.117.093.117h4.545v4.23c-1.067.233-2.412.396-4.22.396-3.942 0-6.238-2.395-6.238-6.138s2.296-6.51 6.91-6.51c2.644 0 4.105.303 5.426.675.093 0 .163-.023.163-.093l.278-2.906c0-.047-.023-.14-.116-.14C15.016.81 13.323.6 11.074.6 4.234.623.5 4.76.5 10.108c0 5.348 3.733 9.23 9.345 9.23 3.687 0 5.797-.511 7.56-1.395.046-.023.115-.093.115-.14V8.738c-.023-.047-.07-.093-.116-.093ZM29.393 9.76c0-1.023.811-1.14 2.342-1.14 1.53 0 2.991.233 4.011.605.047 0 .14-.023.14-.07l.231-2.557c0-.047-.023-.07-.07-.093-.903-.186-2.457-.419-4.451-.419-3.409 0-5.125 1.302-5.125 3.743 0 2.395 1.299 3.348 3.756 3.953 2.551.65 3.571.72 3.571 1.86 0 .837-.533 1.162-2.597 1.162-1.855 0-3.084-.279-4.127-.558-.023 0-.093.023-.093.07l-.278 2.58c0 .047.023.07.093.07.858.14 2.458.372 4.707.372 4.035 0 5.45-1.372 5.45-3.975 0-2.79-1.833-3.488-4.615-4.208-1.925-.512-2.945-.605-2.945-1.395Z" fill="#0AF" />
  </svg>