<?xml version="1.0" encoding="UTF-8"?>
<svg xmlns="http://www.w3.org/2000/svg" width="55" height="55" viewBox="0 0 48 60"><g fill-rule="evenodd">
      <path d="M25.354 23.055c-.018-.042-.052-.06-.073-.097a6.177 6.177 0 1 0-7.454-6.04c0 2.82 1.9 5.17 4.48 5.913-.07.07-.14.14-.19.25L6.45 56.9a1.784 1.784 0 0 0 .884 2.365c.24.11.492.164.74.164.68 0 1.328-.377 1.628-1.036l1.354-2.96 22.066-7.978 5.188 11c.422.89 1.484 1.336 2.38.91.892-.42 1.275-1.37.853-2.264l-16.19-34.05zm-1.588 4.575l3.224 6.84-7.702 2.95 4.478-9.79zM12.094 53.16l5.592-12.234 14.128 5.106-19.72 7.128zm6.833-13.688l8.828-3.385 3.74 7.926-12.568-4.54z" />
      <path d="M33.993 27.217c2.693-2.614 4.37-6.263 4.37-10.3 0-3.883-1.553-7.404-4.067-9.99L31.773 9.45a10.747 10.747 0 0 1 3.014 7.468c0 3.057-1.278 5.813-3.32 7.774l2.526 2.525zm-19.986 0l2.523-2.523a10.756 10.756 0 0 1-3.32-7.777c0-2.902 1.153-5.53 3.013-7.468L13.7 6.923c-2.51 2.586-4.065 6.108-4.065 9.99 0 4.037 1.682 7.686 4.372 10.3z" />
      <path d="M37.93 31.154l2.52 2.52c4.348-4.268 7.053-10.2 7.053-16.757 0-6.402-2.58-12.206-6.745-16.45l-2.52 2.52c3.515 3.594 5.69 8.506 5.69 13.93-.002 5.58-2.303 10.62-5.997 14.237zm-27.86 0c-3.695-3.62-5.996-8.658-5.996-14.237 0-5.425 2.177-10.336 5.69-13.93L7.244.467C3.076 4.71.496 10.513.496 16.917c0 6.555 2.705 12.49 7.052 16.755l2.52-2.52z" />
    </g>
  </svg>