<?xml version="1.0" encoding="UTF-8"?>
<svg xmlns="http://www.w3.org/2000/svg" width="55" height="55" viewBox="0 0 55 54"><g fill="none" fill-rule="evenodd">
      <path d="M39.79 22.561A10.899 10.899 0 0 0 48 17.708c-.87.224-1.783.344-2.724.344-6.028 0-10.915-4.912-10.915-10.97 0-2.25.674-4.341 1.83-6.082C31.481 2.216 28 6.512 28 11.626c0 1.448.28 2.832.787 4.098a8.719 8.719 0 0 1 2.712 1.874 6.93 6.93 0 0 1 1.553-.178c3.162 0 5.865 2.166 6.738 5.141z" fill="#7694b4" />
      <path d="M38.13 25.078l-.059-.84c-.194-2.701-2.397-4.818-5.019-4.818-.462 0-.93.068-1.392.202l-.81.234-.57-.636A6.637 6.637 0 0 0 25.356 17c-3.188 0-5.96 2.352-6.587 5.593l-.146.76-.697.286C15.578 24.603 14 27.004 14 29.615c0 3.415 2.737 6.188 6 6.385a4.6 4.6 0 0 0 .377 0H36.5c2.916-.058 5.5-2.488 5.5-5.518 0-2.163-1.228-4.145-3.131-5.053z" fill="#ddd" />
      <path d="M19.818 51.067c-.205 1.08-1.55 2.435-2.847 1.71s-1.125-2.236-.392-3.266S20 46.691 20 46.691s.021 3.297-.183 4.376zm12 0c-.205 1.08-1.55 2.435-2.847 1.71s-1.125-2.236-.392-3.266S32 46.691 32 46.691s.021 3.297-.183 4.376zm5-8c-.205 1.08-1.55 2.435-2.847 1.71s-1.125-2.236-.392-3.266S37 38.691 37 38.691s.021 3.297-.183 4.376zm1.141 6.965l1.65-1.636a.333.333 0 0 0 0-.47l-.048-.047a.331.331 0 0 0-.47-.003l-1.653 1.638-.55-2.26a.335.335 0 0 0-.405-.244l-.064.016a.337.337 0 0 0-.248.403l.566 2.306-2.307-.563a.337.337 0 0 0-.405.245l-.014.064a.33.33 0 0 0 .245.403l2.254.55-1.647 1.635a.338.338 0 0 0-.003.473l.048.047c.13.13.34.13.47.003l1.652-1.642.555 2.264a.332.332 0 0 0 .402.244l.064-.014a.332.332 0 0 0 .247-.403l-.563-2.306 2.305.562a.333.333 0 0 0 .402-.244l.017-.064a.335.335 0 0 0-.244-.404zm-27 0l1.65-1.636a.333.333 0 0 0 0-.47l-.048-.047a.331.331 0 0 0-.47-.003l-1.653 1.638-.55-2.26a.335.335 0 0 0-.405-.244l-.064.016a.337.337 0 0 0-.248.403l.566 2.306-2.307-.563a.337.337 0 0 0-.405.245l-.014.064a.33.33 0 0 0 .245.403l2.254.55-1.647 1.635a.338.338 0 0 0-.003.473l.048.047c.13.13.34.13.47.003l1.652-1.642.555 2.264a.332.332 0 0 0 .402.244l.064-.014a.332.332 0 0 0 .247-.403l-.563-2.306 2.305.562a.333.333 0 0 0 .402-.244l.017-.064a.335.335 0 0 0-.244-.404zm7-8l1.65-1.636a.333.333 0 0 0 0-.47l-.048-.047a.331.331 0 0 0-.47-.003l-1.653 1.638-.55-2.26a.335.335 0 0 0-.405-.244l-.064.016a.337.337 0 0 0-.248.403l.566 2.306-2.307-.563a.337.337 0 0 0-.405.245l-.014.064a.33.33 0 0 0 .245.403l2.254.55-1.647 1.635a.338.338 0 0 0-.003.473l.048.047c.13.13.34.13.47.003l1.652-1.642.555 2.264a.332.332 0 0 0 .402.244l.064-.014a.332.332 0 0 0 .247-.403l-.563-2.306 2.305.562a.333.333 0 0 0 .402-.244l.017-.064a.335.335 0 0 0-.244-.404z" fill="#09f" />
      <path d="M30.157 42.08l-2.815-.043L29.65 38l-3.563.03-3.023 6.023h2.632L22 53.182z" fill="#ff7800" />
    </g>
  </svg>