<?xml version="1.0" encoding="UTF-8"?>
<svg xmlns="http://www.w3.org/2000/svg" width="55" height="55" viewBox="0 0 55 55"><path fill-rule="evenodd" clip-rule="evenodd" d="M17.978 42.047l1.658-1.644a.335.335 0 000-.473l-.048-.047a.333.333 0 00-.473-.003l-1.66 1.646-.553-2.271a.336.336 0 00-.407-.245l-.065.016a.339.339 0 00-.249.405l.569 2.317-2.318-.566a.339.339 0 00-.407.247l-.014.064a.332.332 0 00.246.405l2.265.554-1.655 1.642a.34.34 0 00-.003.475l.048.048a.336.336 0 00.473.003l1.66-1.65.557 2.275c.043.179.226.29.404.245l.064-.014a.334.334 0 00.248-.405l-.565-2.318 2.316.565a.334.334 0 00.404-.245l.017-.064a.337.337 0 00-.245-.406l-2.267-.556zm19 0l1.658-1.644a.335.335 0 000-.473l-.048-.047a.333.333 0 00-.473-.003l-1.66 1.646-.553-2.271a.336.336 0 00-.407-.245l-.065.016a.339.339 0 00-.249.405l.569 2.317-2.318-.566a.339.339 0 00-.407.247l-.014.064a.332.332 0 00.246.405l2.265.554-1.655 1.642a.34.34 0 00-.003.475l.048.048a.336.336 0 00.473.003l1.66-1.65.557 2.275c.043.179.226.29.404.245l.064-.014a.334.334 0 00.248-.405l-.565-2.318 2.316.565a.334.334 0 00.404-.245l.017-.064a.337.337 0 00-.245-.406l-2.267-.556z" fill="#09F" />
    <path fill-rule="evenodd" clip-rule="evenodd" d="M30 42l-2.7.037L29.6 38H26l-3 6h2.696L22 53l8-11z" fill="#F60" />
    <path fill-rule="evenodd" clip-rule="evenodd" d="M39.79 22.561A10.899 10.899 0 0048 17.708c-.87.224-1.783.344-2.724.344-6.028 0-10.915-4.912-10.915-10.97 0-2.25.674-4.341 1.83-6.082C31.481 2.216 28 6.512 28 11.626c0 1.448.28 2.832.787 4.098a8.719 8.719 0 012.713 1.874 6.927 6.927 0 011.552-.178c3.162 0 5.865 2.166 6.738 5.141z" fill="#89A" />
    <path fill-rule="evenodd" clip-rule="evenodd" d="M51.135 4.447v.396l.418.104c.882.426 1.45 1.351 1.447 2.36-.004 1.43-1.393 2.979-2.786 2.979H43.25c-2.127-.007-3.255-1.772-3.25-3.424.004-1.216.74-2.333 1.832-2.779l.324-.132.069-.354C42.52 2.087 43.81.995 45.29 1a3.08 3.08 0 012.283 1.042l.264.297.376-.108a2.33 2.33 0 01.647-.092c1.217.003 2.188 1.048 2.275 2.308zM38.07 24.238l.06.84.738.351c1.903.908 3.131 2.89 3.131 5.053 0 3.03-2.584 5.46-5.5 5.518H20.377s-.253.008-.377 0c-3.263-.197-6-2.97-6-6.385 0-2.611 1.578-5.012 3.927-5.976l.697-.287.146-.759c.628-3.241 3.4-5.593 6.587-5.593 1.862 0 3.656.809 4.922 2.22l.572.636.81-.234a4.99 4.99 0 011.391-.202c2.622 0 4.825 2.117 5.019 4.818z" fill="#DDD" />
  </svg>