<?xml version="1.0" encoding="UTF-8"?>
<svg xmlns="http://www.w3.org/2000/svg" width="55" height="55" viewBox="0 0 36 36"><path fill-rule="evenodd" clip-rule="evenodd" d="M17.897 35.8c-9.886 0-17.9-8.014-17.9-17.9S8.011 0 17.897 0s17.9 8.014 17.9 17.9a17.9 17.9 0 0 1-17.9 17.9Zm0-33.959c-8.87 0-16.062 7.191-16.062 16.062 0 8.87 7.191 16.062 16.062 16.062 8.87 0 16.062-7.191 16.062-16.062 0-8.871-7.191-16.062-16.062-16.063v.001Z" fill="color(display-p3 .8676 .8676 .8676)" />
    <path fill-rule="evenodd" clip-rule="evenodd" d="M21.873 21.072h1.05c.123.001.223.103.223.227v1.752a.228.228 0 0 1-.064.16.225.225 0 0 1-.158.065h-1.05a.222.222 0 0 1-.207-.14.23.23 0 0 1-.017-.087v-1.75a.226.226 0 0 1 .137-.21.222.222 0 0 1 .086-.017Zm2.119-1.241a.683.683 0 0 1-.414.625.664.664 0 0 1-.257.052l-10.668-.011a.666.666 0 0 1-.62-.42.685.685 0 0 1-.051-.259l-.002-2.86a.678.678 0 0 1 .453-.632 1.34 1.34 0 0 0 .616-.61c.112-.357.695-2.435.695-2.435a.588.588 0 0 1 .674-.355c.615-.018 3.694-.015 3.694-.015.524.001 3.03.005 3.58.022a.58.58 0 0 1 .672.358s.5 2.078.612 2.436c.152.28.387.503.672.64l-.02.007a.668.668 0 0 1 .367.596l-.003 2.86Zm-2.197-5.78c-.093-.415-.224-.395-.224-.395l-3.619-.004-3.508-.003s-.131-.02-.223.394c-.093.414-.168 1.43-.187 1.6-.019.17-.037.358.262.34.254-.02 2.839-.017 3.6-.016l.033-.002h.19c.761.001 3.345.006 3.6.027.303.019.28-.17.261-.34-.019-.169-.088-1.182-.182-1.597l-.003-.004Zm-7.66 9.216-1.05-.002a.222.222 0 0 1-.206-.14.23.23 0 0 1-.017-.086v-1.75a.227.227 0 0 1 .138-.21.222.222 0 0 1 .086-.016h1.048a.22.22 0 0 1 .159.067.226.226 0 0 1 .065.16l.002 1.75c0 .06-.022.119-.064.162a.224.224 0 0 1-.157.068l-.004-.003Z" fill="color(display-p3 .4667 .4667 .4667)" />
  </svg>