<?xml version="1.0" encoding="UTF-8"?>
<svg xmlns="http://www.w3.org/2000/svg" width="55" height="55" viewBox="0 0 36 36"><g fill="none" fill-rule="evenodd">
      <path fill="#6BAE01" d="M17.897 35.781a17.9 17.9 0 1 1 17.9-17.9c0 9.886-8.014 17.9-17.9 17.9zm0-33.959c-8.87 0-16.062 7.191-16.062 16.062 0 8.87 7.191 16.062 16.062 16.062 8.87 0 16.062-7.191 16.062-16.062A16.062 16.062 0 0 0 17.897 1.821v.001z" />
      <path fill="#2B2B2B" d="M31.121 19.991a.84.84 0 0 1-.37.476l-.01.006a.671.671 0 0 1-.065.035 3.71 3.71 0 0 1-1.036.3c-.56.08-1.129.1-1.694.057 0 0 .2-.308.732-.935a3.687 3.687 0 0 1 1.2-.913l.045-.021.013-.006a.849.849 0 0 1 1.185 1.001zm-3.292-3.045v.01a.702.702 0 0 1-.027.063c-.152.302-.347.58-.581.823a7.4 7.4 0 0 1-1.218 1.037 10.61 10.61 0 0 1-.034-1.093c.014-.47.126-.933.33-1.357.005-.013.013-.025.018-.038l.007-.014a.791.791 0 0 1 .41-.393.832.832 0 0 1 1.075.405.741.741 0 0 1 .019.555l.001.002zm-1.36 4.032a.849.849 0 0 1 .577 1.053.839.839 0 0 1-.37.476l-.01.006a.833.833 0 0 1-.066.035c-.328.15-.677.251-1.035.3-.56.08-1.129.1-1.694.057 0 0 .2-.308.732-.935a3.69 3.69 0 0 1 1.2-.913c.015-.009.03-.014.045-.021l.013-.006a.839.839 0 0 1 .608-.052zm-3.193-1.051l-10.673.01c-.37 0-.671-.3-.672-.671v-2.834c0-.284.182-.536.45-.628.266-.129.483-.341.617-.605.112-.355.568-2.884.568-2.884a.587.587 0 0 1 .671-.355c.613-.023 3.817-.023 3.817-.023.525 0 3.032 0 3.583.015a.587.587 0 0 1 .672.354s.5 2.528.613 2.883a1.5 1.5 0 0 0 .672.634l-.02.007c.224.112.367.34.369.59v2.834c0 .37-.297.67-.667.673zm-1.339-5.311c-.019-.168-.095-1.145-.188-1.555-.093-.41-.224-.392-.224-.392h-7.192s-.131-.019-.224.392a14.5 14.5 0 0 0-.122 1.555c-.019.168-.037.355.261.336.252-.009 2.838-.015 3.599-.015h.224c.761 0 3.347 0 3.6.015.301.018.282-.169.266-.336zm-11.719 8.235a3.7 3.7 0 0 1-1.035-.3.671.671 0 0 1-.065-.035l-.01-.006a.839.839 0 0 1-.37-.476.849.849 0 0 1 .577-1.053.839.839 0 0 1 .6.056h.015l.045.021c.459.218.867.53 1.2.913.527.627.732.935.732.935a7.778 7.778 0 0 1-1.689-.055zm-1.651-5.014a3.39 3.39 0 0 1-.581-.823.702.702 0 0 1-.027-.063v-.01a.741.741 0 0 1 .019-.555.832.832 0 0 1 1.075-.405c.18.076.327.216.41.393l.008.015c.006.013.013.024.018.037.204.424.316.887.33 1.357.007.365-.004.73-.034 1.093a7.4 7.4 0 0 1-1.218-1.039zm-2.424 2.97a3.694 3.694 0 0 1-1.036-.3.794.794 0 0 1-.064-.035l-.01-.006a.839.839 0 0 1-.37-.476.849.849 0 0 1 .574-1.053.839.839 0 0 1 .6.056l.013.006.045.021c.459.218.867.53 1.2.913.527.627.732.935.732.935a7.776 7.776 0 0 1-1.684-.057v-.004zm7.019 2.12a.224.224 0 0 1-.225-.22v-1.736c0-.124.1-.224.224-.224h1.05c.124 0 .224.1.224.224v1.736a.224.224 0 0 1-.224.224h-1.05l.001-.004zm8.48.022a.224.224 0 0 1-.224-.224v-1.736a.224.224 0 0 1 .224-.224h1.05a.224.224 0 0 1 .224.224v1.736a.224.224 0 0 1-.224.224h-1.05zm-3.713.988c5.426 0 9.825-.019 9.825.3s-4.4 1.423-9.825 1.423c-5.425 0-9.825-1.1-9.825-1.423 0-.323 4.399-.3 9.825-.3z" />
    </g>
  </svg>