<?xml version="1.0" encoding="UTF-8"?>
<svg xmlns="http://www.w3.org/2000/svg" width="55" height="55" viewBox="0 0 36 36"><path fill-rule="evenodd" clip-rule="evenodd" fill="var(--red)" d="M17.898 35.781c-9.886 0-17.9-8.014-17.9-17.9s8.014-17.9 17.9-17.9 17.9 8.014 17.9 17.9a17.9 17.9 0 0 1-17.9 17.9zm0-33.959c-8.87 0-16.062 7.191-16.062 16.062 0 8.87 7.191 16.062 16.062 16.062 8.87 0 16.062-7.191 16.062-16.062 0-8.871-7.191-16.062-16.062-16.063v.001z" />
    <path fill-rule="evenodd" clip-rule="evenodd" fill="var(--text-primary)" d="M25.714 32.67c-.524.318-1.07.598-1.633.838-.09.038-.18.063-.27.1h-5.026s2.811-1.448 3.15-2.187c.339-.739-.586-1.679-1.27-2.019-.684-.34-3.054-1.519-3.792-2.039a1.338 1.338 0 0 1-.2-2.038c.84-.57 1.737-1.05 2.677-1.432 0 0-.6 1.1-.93 1.55-.522.712-.339.74.528 1.22s3.561 1.045 5.063 1.657c2.07.843 2.528 1.4 2.6 2.542a2.979 2.979 0 0 1-.897 1.808zm-6.9-10.884l.745.74a.233.233 0 0 1-.009.327l-1.3 1.311a.23.23 0 0 1-.326.011l-.745-.74a.233.233 0 0 1 .009-.327l1.3-1.311a.23.23 0 0 1 .327-.011h-.001zm4.946-3.158c-.1.31-.1.643 0 .953l-.02-.009a.713.713 0 0 1-.181.706l-2.121 2.139a.693.693 0 0 1-.98.034l-7.567-7.526a.7.7 0 0 1 .026-.981l2.123-2.14a.7.7 0 0 1 .789-.156c.29.091.604.084.89-.021.345-.189 2.3-1.333 2.3-1.333a.588.588 0 0 1 .742.206c.45.42 2.634 2.592 2.634 2.592.372.37 2.148 2.139 2.526 2.541a.59.59 0 0 1 .211.741s-1.184 1.907-1.371 2.254h-.001zm.545-2.537l-2.567-2.554-2.488-2.474s-.078-.106-.452.138-1.181.953-1.32 1.066c-.139.113-.292.241-.066.438.192.168 2.027 1.989 2.567 2.526l.063.062.1.1c.54.537 2.372 2.362 2.54 2.554.2.225.325.071.437-.069.112-.14.814-.954 1.055-1.33.241-.376.132-.458.132-.458l-.001.001zm-10.76.457a.231.231 0 0 1-.009.327l-1.3 1.311a.232.232 0 0 1-.327.011l-.744-.74a.231.231 0 0 1 .009-.327l1.3-1.311a.232.232 0 0 1 .327-.011l.744.74zm-2.043 7.643c-.644.564-.841 1.086-.4 1.475a33.525 33.525 0 0 1 2.765 2.44c2.056 2.353 1.925 1.189.769 4.237-.755 1.988-.854 1.131-.854 1.131l-2.816.024a10.556 10.556 0 0 1-2.271-1.334 8.41 8.41 0 0 0 1.174-.678c2.74-2.156 1.89-2.54.918-3.438-.467-.431-2.277-1.892-1.944-2.552.741-1.463 3.283-2.089 3.283-2.089a7.071 7.071 0 0 1-.623.783l-.001.001z" />
  </svg>