<?xml version="1.0" encoding="UTF-8"?>
<svg xmlns="http://www.w3.org/2000/svg" width="55" height="55" viewBox="0 0 36 36"><path fill-rule="evenodd" clip-rule="evenodd" d="M-.003 17.9c0 9.886 8.014 17.9 17.9 17.9a17.9 17.9 0 0 0 11.932-4.557l.192.192 1.414-1.414-.192-.192A17.9 17.9 0 0 0 35.797 17.9c0-9.886-8.014-17.9-17.9-17.9s-17.9 8.014-17.9 17.9Zm29.945 10.628a16 16 0 0 0 4.017-10.625c0-8.871-7.191-16.061-16.062-16.062A16.001 16.001 0 0 0 7.272 5.857l22.67 22.671ZM5.857 7.271a16 16 0 0 0-4.022 10.632c0 8.87 7.191 16.062 16.062 16.062 4.077 0 7.8-1.52 10.632-4.022L5.857 7.27Z" fill="var(--border)" />
  </svg>