<?xml version="1.0" encoding="UTF-8"?>
<svg xmlns="http://www.w3.org/2000/svg" width="55" height="55" viewBox="0 0 36 36"><path fill-rule="evenodd" clip-rule="evenodd" fill="var(--yellow)" d="M17.897 35.781c-9.886 0-17.9-8.014-17.9-17.9s8.014-17.9 17.9-17.9 17.9 8.014 17.9 17.9a17.9 17.9 0 0 1-17.9 17.9zm0-33.959c-8.87 0-16.062 7.191-16.062 16.062 0 8.87 7.191 16.062 16.062 16.062 8.87 0 16.062-7.191 16.062-16.062 0-8.871-7.191-16.062-16.062-16.063v.001z" />
    <path fill-rule="evenodd" clip-rule="evenodd" fill="var(--text-primary)" d="M26.691 32.043a14.613 14.613 0 0 1-2.611 1.465c-.089.037-.187.061-.277.1H18.78s3.285-1.447 3.867-2.187a1.444 1.444 0 0 0-.61-2.019 30.381 30.381 0 0 1-3.125-2.039 1.4 1.4 0 0 1 .467-2.038 21.425 21.425 0 0 1 3.147-1.432s-.956 1.1-1.438 1.55c-.755.712-.582.74.129 1.22s3.219 1.045 4.52 1.657c1.8.843 2.069 1.4 1.774 2.542a3.07 3.07 0 0 1-.82 1.181zm-5.054-11.406l1.047.081c.123.01.215.118.206.241l-.134 1.731a.223.223 0 0 1-.24.206l-1.047-.081a.224.224 0 0 1-.206-.241l.134-1.73a.223.223 0 0 1 .24-.207zm2.209-1.065a.671.671 0 0 1-.721.618l-10.642-.822a.672.672 0 0 1-.618-.722l.218-2.826a.668.668 0 0 1 .5-.591c.276-.107.509-.302.662-.555.139-.345.88-2.354.88-2.354a.586.586 0 0 1 .7-.3c.615.029 3.686.266 3.686.266.523.041 3.023.235 3.571.294a.585.585 0 0 1 .642.405s.339 2.092.424 2.454a1.5 1.5 0 0 0 .621.684l-.021.005a.665.665 0 0 1 .321.617l-.223 2.827zm-1.748-5.879c-.061-.417-.193-.408-.193-.408l-3.61-.279-3.5-.27s-.129-.029-.253.373-.277 1.4-.309 1.567c-.032.167-.064.351.235.355.255 0 2.834.2 3.593.259h.033l.19.015c.759.059 3.337.26 3.59.3.3.042.292-.146.286-.315-.006-.169.003-1.176-.059-1.593l-.003-.004zm-8.349 8.525l-1.047-.081a.224.224 0 0 1-.206-.241l.134-1.73a.224.224 0 0 1 .241-.206l1.046.081a.224.224 0 0 1 .206.241l-.133 1.73a.225.225 0 0 1-.238.21l-.003-.004zm-1.112 1.972c-.726.564-1 1.086-.615 1.475s2.745 1.554 3.535 2.108c1.355.95 1.184 2.235-.3 3.974a5.223 5.223 0 0 1-3.6 1.722 12.512 12.512 0 0 1-2.5-1.553 7.1 7.1 0 0 0 .769-.43c3.057-2.156 2.263-2.54 1.423-3.438-.4-.431-2-1.892-1.567-2.552.956-1.463 3.59-2.089 3.59-2.089a8.591 8.591 0 0 1-.735.783z" />
  </svg>