<?xml version="1.0" encoding="UTF-8"?>
<svg xmlns="http://www.w3.org/2000/svg" width="55" height="55" viewBox="0 0 36 36"><path fill-rule="evenodd" clip-rule="evenodd" fill="var(--green)" d="M17.897 35.781c-9.886 0-17.9-8.014-17.9-17.9s8.014-17.9 17.9-17.9 17.9 8.014 17.9 17.9-8.014 17.9-17.9 17.9zm0-33.959c-8.87 0-16.062 7.191-16.062 16.062 0 8.87 7.191 16.062 16.062 16.062 8.87 0 16.062-7.191 16.062-16.062A16.062 16.062 0 0 0 17.897 1.821v.001z" />
    <path fill-rule="evenodd" clip-rule="evenodd" fill="var(--text-primary)" d="M24.242 14.371l-5.541 8.718c0 .008-.01.013-.013.021l-.03.047c-.006.009-.015.013-.021.021a1.171 1.171 0 0 1-.221.3 1.2 1.2 0 0 1-1.69-.089L12.1 18.247a1.2 1.2 0 1 1 1.779-1.6l3.565 3.962 4.793-7.543a1.2 1.2 0 0 1 2.005 1.305z" />
  </svg>