<?xml version="1.0" encoding="UTF-8"?>
<svg xmlns="http://www.w3.org/2000/svg" width="55" height="55" viewBox="0 0 20 20"><path d="M10 18.783c1.25 0 2.421-.238 3.516-.714a9.307 9.307 0 0 0 2.913-1.976 9.199 9.199 0 0 0 1.976-2.904c.476-1.1.715-2.276.715-3.525 0-1.25-.242-2.422-.724-3.517a9.306 9.306 0 0 0-1.976-2.913 9.069 9.069 0 0 0-2.904-1.966A8.783 8.783 0 0 0 9.991.553a8.76 8.76 0 0 0-3.516.715 9.177 9.177 0 0 0-2.913 1.966 9.386 9.386 0 0 0-1.967 2.913A8.718 8.718 0 0 0 .88 9.664c0 1.249.238 2.424.715 3.525a9.307 9.307 0 0 0 4.88 4.88c1.1.476 2.276.714 3.525.714Zm-2.848-5.39a.864.864 0 0 1-.622-.25.875.875 0 0 1-.25-.631c0-.23.086-.43.26-.603l2.235-2.236L6.54 7.446a.808.808 0 0 1-.26-.603c0-.247.083-.454.25-.621a.864.864 0 0 1 .622-.25c.235 0 .442.086.621.259L10 8.448l2.254-2.226a.815.815 0 0 1 .622-.27c.241 0 .445.087.612.26.167.167.25.372.25.613a.818.818 0 0 1-.259.612l-2.236 2.236 2.227 2.226c.173.167.26.372.26.613a.875.875 0 0 1-.251.63.844.844 0 0 1-.622.251.855.855 0 0 1-.63-.25L10 10.916l-2.208 2.227a.887.887 0 0 1-.64.25Z" />
  </svg>