<?xml version="1.0" encoding="UTF-8"?>
<svg xmlns="http://www.w3.org/2000/svg" width="55" height="55" viewBox="0 0 55 55"><linearGradient id="rs3_st_mist_b" x1="50%" x2="50%" y1="0%" y2="50%">
      <stop offset="0" stop-color="#b5c4d9" stop-opacity=".18" />
      <stop offset="1" stop-color="#b0bccd" stop-opacity="0" />
    </linearGradient>
    <linearGradient id="rs3_st_mist_c" x1="11.778%" x2="50%" y1="27.317%" y2="50%">
      <stop offset="0" stop-color="#b5c4d9" stop-opacity=".18" />
      <stop offset="1" stop-color="#b0bccd" stop-opacity="0" />
    </linearGradient>
    <linearGradient id="rs3_st_mist_d" x1="7.812%" x2="50%" y1="54.801%" y2="50%">
      <stop offset="0" stop-color="#b5c4d9" stop-opacity=".18" />
      <stop offset="1" stop-color="#b0bccd" stop-opacity="0" />
    </linearGradient>
    <g fill="none" fill-rule="evenodd">
      <path d="M19.818 51.067c-.205 1.08-1.55 2.435-2.847 1.71s-1.125-2.236-.392-3.266S20 46.691 20 46.691s.021 3.297-.183 4.376zm12 0c-.205 1.08-1.55 2.435-2.847 1.71s-1.125-2.236-.392-3.266S32 46.691 32 46.691s.021 3.297-.183 4.376zm5-8c-.205 1.08-1.55 2.435-2.847 1.71s-1.125-2.236-.392-3.266S37 38.691 37 38.691s.021 3.297-.183 4.376zm1.141 6.965l1.65-1.636a.333.333 0 0 0 0-.47l-.048-.047a.331.331 0 0 0-.47-.003l-1.653 1.638-.55-2.26a.335.335 0 0 0-.405-.244l-.064.016a.337.337 0 0 0-.248.403l.566 2.306-2.307-.563a.337.337 0 0 0-.405.245l-.014.064a.33.33 0 0 0 .245.403l2.254.55-1.647 1.635a.338.338 0 0 0-.003.473l.048.047c.13.13.34.13.47.003l1.652-1.642.555 2.264a.332.332 0 0 0 .402.244l.064-.014a.332.332 0 0 0 .247-.403l-.563-2.306 2.305.562a.333.333 0 0 0 .402-.244l.017-.064a.335.335 0 0 0-.244-.404zm-27 0l1.65-1.636a.333.333 0 0 0 0-.47l-.048-.047a.331.331 0 0 0-.47-.003l-1.653 1.638-.55-2.26a.335.335 0 0 0-.405-.244l-.064.016a.337.337 0 0 0-.248.403l.566 2.306-2.307-.563a.337.337 0 0 0-.405.245l-.014.064a.33.33 0 0 0 .245.403l2.254.55-1.647 1.635a.338.338 0 0 0-.003.473l.048.047c.13.13.34.13.47.003l1.652-1.642.555 2.264a.332.332 0 0 0 .402.244l.064-.014a.332.332 0 0 0 .247-.403l-.563-2.306 2.305.562a.333.333 0 0 0 .402-.244l.017-.064a.335.335 0 0 0-.244-.404zm7-8l1.65-1.636a.333.333 0 0 0 0-.47l-.048-.047a.331.331 0 0 0-.47-.003l-1.653 1.638-.55-2.26a.335.335 0 0 0-.405-.244l-.064.016a.337.337 0 0 0-.248.403l.566 2.306-2.307-.563a.337.337 0 0 0-.405.245l-.014.064a.33.33 0 0 0 .245.403l2.254.55-1.647 1.635a.338.338 0 0 0-.003.473l.048.047c.13.13.34.13.47.003l1.652-1.642.555 2.264a.332.332 0 0 0 .402.244l.064-.014a.332.332 0 0 0 .247-.403l-.563-2.306 2.305.562a.333.333 0 0 0 .402-.244l.017-.064a.335.335 0 0 0-.244-.404z" fill="#09f" />
      <path d="M30.157 42.08l-2.815-.043L29.65 38l-3.563.03-3.023 6.023h2.632L22 53.182z" fill="#ff7800" />
      <g fill="url(#rs3_st_mist_b)" transform="translate(-4 -2)">
        <path d="M32 40.5C32 47.956 25.956 54 18.5 54S5 47.956 5 40.5 11.044 27 18.5 27 32 33.044 32 40.5zm-6 0a7.5 7.5 0 1 0-15 0 7.5 7.5 0 0 0 15 0z" />
        <path d="M36 37.5C36 44.956 29.956 51 22.5 51S9 44.956 9 37.5 15.044 24 22.5 24 36 30.044 36 37.5zm-6 0a7.5 7.5 0 1 0-15 0 7.5 7.5 0 0 0 15 0z" />
        <path d="M18 34c-6.075 0-11-4.925-11-11s4.925-11 11-11 11 4.925 11 11-4.925 11-11 11zm0-5a6 6 0 1 0 0-12 6 6 0 0 0 0 12z" />
        <path d="M32 18.5C32 25.956 25.956 32 18.5 32S5 25.956 5 18.5 11.044 5 18.5 5 32 11.044 32 18.5zm-6 0a7.5 7.5 0 1 0-15 0 7.5 7.5 0 0 0 15 0z" />
        <path d="M39 21.5C39 28.956 32.956 35 25.5 35S12 28.956 12 21.5 18.044 8 25.5 8 39 14.044 39 21.5zm-6 0a7.5 7.5 0 1 0-15 0 7.5 7.5 0 0 0 15 0z" />
        <path d="M26.5 29C33.956 29 40 35.044 40 42.5S33.956 56 26.5 56 13 49.956 13 42.5 19.044 29 26.5 29zm0 6a7.5 7.5 0 1 0 0 15 7.5 7.5 0 0 0 0-15z" />
        <path d="M26.5 20C33.956 20 40 26.044 40 33.5S33.956 47 26.5 47 13 40.956 13 33.5 19.044 20 26.5 20zm0 6a7.5 7.5 0 1 0 0 15 7.5 7.5 0 0 0 0-15z" />
        <path d="M42.5 27C49.956 27 56 33.044 56 40.5S49.956 54 42.5 54 29 47.956 29 40.5 35.044 27 42.5 27zm0 6a7.5 7.5 0 1 0 0 15 7.5 7.5 0 0 0 0-15z" />
        <path d="M26 41.5C26 34.044 32.044 28 39.5 28S53 34.044 53 41.5 46.956 55 39.5 55 26 48.956 26 41.5zm6 0a7.5 7.5 0 1 0 15 0 7.5 7.5 0 0 0-15 0z" />
        <path d="M23 37.5C23 30.044 29.044 24 36.5 24S50 30.044 50 37.5 43.956 51 36.5 51 23 44.956 23 37.5zm6 0a7.5 7.5 0 1 0 15 0 7.5 7.5 0 0 0-15 0z" />
        <path d="M43.5 13C50.956 13 57 19.044 57 26.5S50.956 40 43.5 40 30 33.956 30 26.5 36.044 13 43.5 13zm0 6a7.5 7.5 0 1 0 0 15 7.5 7.5 0 0 0 0-15z" />
        <path d="M39.5 19C46.956 19 53 25.044 53 32.5S46.956 46 39.5 46 26 39.956 26 32.5 32.044 19 39.5 19zm0 6a7.5 7.5 0 1 0 0 15 7.5 7.5 0 0 0 0-15z" />
        <path d="M38.778 31.335c-4.296-4.296-4.296-11.261 0-15.557 4.296-4.296 11.26-4.296 15.557 0 4.295 4.296 4.295 11.26 0 15.557-4.296 4.295-11.261 4.295-15.557 0zm3.536-3.536a6 6 0 1 0 8.485-8.485 6 6 0 0 0-8.485 8.485z" />
        <path d="M31.778 37.335c-4.296-4.296-4.296-11.261 0-15.557 4.296-4.296 11.26-4.296 15.557 0 4.295 4.296 4.295 11.26 0 15.557-4.296 4.295-11.261 4.295-15.557 0zm3.536-3.536a6 6 0 1 0 8.485-8.485 6 6 0 0 0-8.485 8.485z" />
        <path d="M36.778 33.335c-4.296-4.296-4.296-11.261 0-15.557 4.296-4.296 11.26-4.296 15.557 0 4.295 4.296 4.295 11.26 0 15.557-4.296 4.295-11.261 4.295-15.557 0zm3.536-3.536a6 6 0 1 0 8.485-8.485 6 6 0 0 0-8.485 8.485z" />
        <path d="M32.778 23.335c-4.296-4.296-4.296-11.261 0-15.557 4.296-4.296 11.26-4.296 15.557 0 4.295 4.296 4.295 11.26 0 15.557-4.296 4.295-11.261 4.295-15.557 0zm3.536-3.536a6 6 0 1 0 8.485-8.485 6 6 0 0 0-8.485 8.485z" />
        <path d="M29 25c-6.075 0-11-4.925-11-11S22.925 3 29 3s11 4.925 11 11-4.925 11-11 11zm0-5a6 6 0 1 0 0-12 6 6 0 0 0 0 12zm6 13c6.075 0 11 4.925 11 11s-4.925 11-11 11-11-4.925-11-11 4.925-11 11-11zm0 5a6 6 0 1 0 0 12 6 6 0 0 0 0-12z" />
        <path d="M42 27.5C42 34.956 35.956 41 28.5 41S15 34.956 15 27.5 21.044 14 28.5 14 42 20.044 42 27.5zm-6 0a7.5 7.5 0 1 0-15 0 7.5 7.5 0 0 0 15 0z" />
        <path d="M34 30.5C34 37.956 27.956 44 20.5 44S7 37.956 7 30.5 13.044 17 20.5 17 34 23.044 34 30.5zm-6 0a7.5 7.5 0 1 0-15 0 7.5 7.5 0 0 0 15 0z" />
        <path d="M35.5 37C28.044 37 22 30.956 22 23.5S28.044 10 35.5 10 49 16.044 49 23.5 42.956 37 35.5 37zm0-6a7.5 7.5 0 1 0 0-15 7.5 7.5 0 0 0 0 15z" />
        <path d="M43.5 45C36.044 45 30 38.956 30 31.5S36.044 18 43.5 18 57 24.044 57 31.5 50.956 45 43.5 45zm0-6a7.5 7.5 0 1 0 0-15 7.5 7.5 0 0 0 0 15z" />
        <path d="M38 27.5C38 34.956 31.956 41 24.5 41S11 34.956 11 27.5 17.044 14 24.5 14 38 20.044 38 27.5zm-6 0a7.5 7.5 0 1 0-15 0 7.5 7.5 0 0 0 15 0z" />
        <path d="M38.778 40.335c-4.296-4.296-4.296-11.261 0-15.557 4.296-4.296 11.26-4.296 15.557 0 4.295 4.296 4.295 11.26 0 15.557-4.296 4.295-11.261 4.295-15.557 0zm3.536-3.536a6 6 0 1 0 8.485-8.485 6 6 0 0 0-8.485 8.485z" />
        <path d="M50 26.5C50 33.956 43.956 40 36.5 40S23 33.956 23 26.5 29.044 13 36.5 13 50 19.044 50 26.5zm-7 0a6.5 6.5 0 1 0-13 0 6.5 6.5 0 0 0 13 0z" />
        <path d="M47 30.5C47 37.956 40.956 44 33.5 44S20 37.956 20 30.5 26.044 17 33.5 17 47 23.044 47 30.5zm-6 0a7.5 7.5 0 1 0-15 0 7.5 7.5 0 0 0 15 0z" />
        <path d="M26.5 23C33.956 23 40 29.044 40 36.5S33.956 50 26.5 50 13 43.956 13 36.5 19.044 23 26.5 23zm0 6a7.5 7.5 0 1 0 0 15 7.5 7.5 0 0 0 0-15z" />
      </g>
      <path d="M43.5 50C36.044 50 30 43.956 30 36.5S36.044 23 43.5 23 57 29.044 57 36.5 50.956 50 43.5 50zm0-6a7.5 7.5 0 1 0 0-15 7.5 7.5 0 0 0 0 15z" fill="url(#rs3_st_mist_c)" transform="rotate(180 41.5 35.5)" />
      <path d="M34.5 49C27.044 49 21 42.956 21 35.5S27.044 22 34.5 22 48 28.044 48 35.5 41.956 49 34.5 49zm0-6a7.5 7.5 0 1 0 0-15 7.5 7.5 0 0 0 0 15z" fill="url(#rs3_st_mist_b)" transform="rotate(90 33.5 32.5)" />
      <path d="M38.556 30.556c-6.075 0-11-4.925-11-11s4.925-11 11-11 11 4.925 11 11-4.925 11-11 11zm0-5a6 6 0 1 0 0-12 6 6 0 0 0 0 12z" fill="url(#rs3_st_mist_b)" transform="rotate(45 38.97 13.728)" />
      <path d="M20.556 50.556c-6.075 0-11-4.925-11-11s4.925-11 11-11 11 4.925 11 11-4.925 11-11 11zm0-5a6 6 0 1 0 0-12 6 6 0 0 0 0 12z" fill="url(#rs3_st_mist_b)" transform="rotate(45 20.97 33.728)" />
      <path d="M15.556 39.556c-6.075 0-11-4.925-11-11s4.925-11 11-11 11 4.925 11 11-4.925 11-11 11zm0-5a6 6 0 1 0 0-12 6 6 0 0 0 0 12z" fill="url(#rs3_st_mist_d)" transform="rotate(45 15.97 22.728)" />
      <path d="M32.556 46.556c-6.075 0-11-4.925-11-11s4.925-11 11-11 11 4.925 11 11-4.925 11-11 11zm0-5a6 6 0 1 0 0-12 6 6 0 0 0 0 12z" fill="url(#rs3_st_mist_b)" transform="rotate(45 32.97 29.728)" />
      <path d="M29 31c-6.075 0-11-4.925-11-11S22.925 9 29 9s11 4.925 11 11-4.925 11-11 11zm0-5a6 6 0 1 0 0-12 6 6 0 0 0 0 12z" fill="url(#rs3_st_mist_b)" transform="translate(-4 -2)" />
    </g>
  </svg>