<?xml version="1.0" encoding="UTF-8"?>
<svg xmlns="http://www.w3.org/2000/svg" width="55" height="55" viewBox="0 0 32 32"><path fill-rule="evenodd" clip-rule="evenodd" d="M12.4667 9C13.0926 9 13.6 8.55228 13.6 8C13.6 7.44772 13.0926 7 12.4667 7H1.13333C0.507411 7 0 7.44772 0 8C0 8.55228 0.507411 9 1.13333 9H12.4667ZM9.06667 17C9.69259 17 10.2 16.5523 10.2 16C10.2 15.4477 9.69259 15 9.06667 15H1.13333C0.507411 15 0 15.4477 0 16C0 16.5523 0.507411 17 1.13333 17H9.06667ZM15.8667 25C16.4926 25 17 24.5523 17 24C17 23.4477 16.4926 23 15.8667 23H1.13333C0.507411 23 0 23.4477 0 24C0 24.5523 0.507411 25 1.13333 25H15.8667Z" />
    <path fill-rule="evenodd" clip-rule="evenodd" d="M26.5 14.5C26.5 17.2614 24.2614 19.5 21.5 19.5C18.7386 19.5 16.5 17.2614 16.5 14.5C16.5 11.7386 18.7386 9.5 21.5 9.5C24.2614 9.5 26.5 11.7386 26.5 14.5ZM25.3347 19.7489C24.2597 20.5356 22.9341 21 21.5 21C17.9101 21 15 18.0899 15 14.5C15 10.9101 17.9101 8 21.5 8C25.0899 8 28 10.9101 28 14.5C28 15.9341 27.5356 17.2597 26.7489 18.3347L30.2071 21.7929C30.5976 22.1834 30.5976 22.8166 30.2071 23.2071C29.8166 23.5976 29.1834 23.5976 28.7929 23.2071L25.3347 19.7489Z" />
  </svg>