<?xml version="1.0" encoding="UTF-8"?>
<svg xmlns="http://www.w3.org/2000/svg" width="55" height="55" viewBox="0 0 18 18"><path fill-rule="evenodd" clip-rule="evenodd" d="M7.5 1.5C6.67157 1.5 6 2.17157 6 3C6 3.82843 6.67157 4.5 7.5 4.5C7.94425 4.5 8.34339 4.30687 8.61805 4H17C17.5523 4 18 3.55228 18 3C18 2.44772 17.5523 2 17 2H8.61805C8.34339 1.69313 7.94425 1.5 7.5 1.5ZM7.5 13.5C6.67157 13.5 6 14.1716 6 15C6 15.8284 6.67157 16.5 7.5 16.5C7.94425 16.5 8.34339 16.3069 8.61805 16H17C17.5523 16 18 15.5523 18 15C18 14.4477 17.5523 14 17 14H8.61805C8.34339 13.6931 7.94425 13.5 7.5 13.5ZM1 8C0.447715 8 0 8.44772 0 9C0 9.55229 0.447715 10 1 10H8C8.55229 10 9 9.55229 9 9C9 8.44772 8.55229 8 8 8H1ZM12.6181 8C12.3434 7.69313 11.9443 7.5 11.5 7.5C10.6716 7.5 10 8.17157 10 9C10 9.82843 10.6716 10.5 11.5 10.5C11.9443 10.5 12.3434 10.3069 12.6181 10H17C17.5523 10 18 9.55229 18 9C18 8.44772 17.5523 8 17 8H12.6181ZM1 14C0.447715 14 0 14.4477 0 15C0 15.5523 0.447715 16 1 16H4C4.55228 16 5 15.5523 5 15C5 14.4477 4.55228 14 4 14H1ZM0 3C0 2.44772 0.447715 2 1 2H4C4.55228 2 5 2.44772 5 3C5 3.55228 4.55228 4 4 4H1C0.447715 4 0 3.55228 0 3Z" />
  </svg>