<?xml version="1.0" encoding="UTF-8"?>
<svg xmlns="http://www.w3.org/2000/svg" width="55" height="55" viewBox="0 0 55 17"><path fill-rule="evenodd" clip-rule="evenodd" d="m35.978 4.047 1.658-1.644a.335.335 0 0 0 0-.473l-.048-.047a.333.333 0 0 0-.473-.003l-1.66 1.646-.553-2.271a.336.336 0 0 0-.407-.245l-.065.016a.339.339 0 0 0-.249.405l.569 2.317-2.318-.565a.338.338 0 0 0-.407.246l-.014.064a.332.332 0 0 0 .246.405l2.265.554-1.655 1.642a.34.34 0 0 0-.003.475l.048.048a.336.336 0 0 0 .473.003l1.66-1.65.557 2.275c.043.179.226.29.404.245l.064-.014a.334.334 0 0 0 .248-.405l-.565-2.318 2.316.565a.334.334 0 0 0 .404-.245l.017-.064a.337.337 0 0 0-.245-.406l-2.267-.556ZM30.978 12.047l1.658-1.644a.335.335 0 0 0 0-.473l-.048-.047a.333.333 0 0 0-.473-.003l-1.66 1.646-.553-2.271a.336.336 0 0 0-.407-.245l-.065.016a.339.339 0 0 0-.249.405l.569 2.317-2.318-.566a.339.339 0 0 0-.407.247l-.014.064a.332.332 0 0 0 .246.405l2.265.554-1.655 1.642a.34.34 0 0 0-.003.475l.048.048a.336.336 0 0 0 .473.003l1.66-1.65.557 2.275c.043.179.226.29.404.245l.064-.014a.334.334 0 0 0 .248-.405l-.565-2.318 2.316.565a.334.334 0 0 0 .404-.245l.017-.064a.337.337 0 0 0-.245-.406l-2.267-.556ZM26.978 4.047l1.658-1.644a.335.335 0 0 0 0-.473l-.048-.047a.333.333 0 0 0-.473-.003l-1.66 1.646-.553-2.271a.336.336 0 0 0-.407-.245l-.065.016a.339.339 0 0 0-.249.405l.569 2.317-2.318-.565a.338.338 0 0 0-.407.246l-.014.064a.332.332 0 0 0 .246.405l2.265.554-1.655 1.642a.34.34 0 0 0-.003.475l.048.048a.336.336 0 0 0 .473.003l1.66-1.65.557 2.275c.043.179.226.29.404.245l.064-.014a.334.334 0 0 0 .248-.405l-.565-2.318 2.316.565a.334.334 0 0 0 .404-.245l.017-.064a.337.337 0 0 0-.245-.406l-2.267-.556ZM21.978 12.047l1.658-1.644a.335.335 0 0 0 0-.473l-.048-.047a.333.333 0 0 0-.473-.003l-1.66 1.646-.553-2.271a.336.336 0 0 0-.407-.245l-.065.016a.339.339 0 0 0-.249.405l.569 2.317-2.318-.566a.339.339 0 0 0-.407.247l-.014.064a.332.332 0 0 0 .246.405l2.265.554-1.655 1.642a.34.34 0 0 0-.003.475l.048.048a.336.336 0 0 0 .473.003l1.66-1.65.557 2.275c.043.179.226.29.404.245l.064-.014a.334.334 0 0 0 .248-.405l-.565-2.318 2.316.565a.334.334 0 0 0 .404-.245l.017-.064a.337.337 0 0 0-.245-.406l-2.267-.556ZM17.978 4.047l1.658-1.644a.335.335 0 0 0 0-.473l-.048-.047a.333.333 0 0 0-.473-.003l-1.66 1.646-.553-2.271a.336.336 0 0 0-.407-.245l-.065.016a.339.339 0 0 0-.249.405l.569 2.317-2.318-.565a.338.338 0 0 0-.407.246l-.014.064a.332.332 0 0 0 .246.405l2.265.554-1.655 1.642a.34.34 0 0 0-.003.475l.048.048a.336.336 0 0 0 .473.003l1.66-1.65.557 2.275c.043.179.226.29.404.245l.064-.014a.334.334 0 0 0 .248-.405l-.565-2.318 2.316.565a.334.334 0 0 0 .404-.245l.017-.064a.337.337 0 0 0-.245-.406l-2.267-.556ZM12.978 12.047l1.658-1.644a.335.335 0 0 0 0-.473l-.048-.047a.333.333 0 0 0-.473-.003l-1.66 1.646-.553-2.271a.336.336 0 0 0-.407-.245l-.065.016a.339.339 0 0 0-.249.405l.569 2.317-2.318-.566a.338.338 0 0 0-.407.247l-.014.064a.332.332 0 0 0 .246.405l2.265.554-1.655 1.642a.34.34 0 0 0-.003.475l.048.048a.336.336 0 0 0 .473.003l1.66-1.65.557 2.275c.043.179.226.29.404.245l.064-.014a.334.334 0 0 0 .248-.405l-.565-2.318 2.316.565a.334.334 0 0 0 .404-.245l.017-.064a.337.337 0 0 0-.245-.406l-2.267-.556Z" fill="#09F" />
  </svg>