<?xml version="1.0" encoding="UTF-8"?>
<svg xmlns="http://www.w3.org/2000/svg" width="55" height="55" viewBox="0 0 5 5"><path fill-rule="evenodd" clip-rule="evenodd" d="m3.111 2.53 1.036-1.028a.21.21 0 0 0 0-.296l-.03-.03a.208.208 0 0 0-.295-.001L2.784 2.204 2.439.784a.21.21 0 0 0-.255-.153l-.04.01a.212.212 0 0 0-.156.253l.356 1.449-1.45-.354a.212.212 0 0 0-.254.154l-.008.04a.207.207 0 0 0 .154.253l1.415.346L1.167 3.81a.213.213 0 0 0-.002.297l.03.03a.21.21 0 0 0 .296.001l1.037-1.031.348 1.422a.209.209 0 0 0 .253.153l.04-.009a.209.209 0 0 0 .155-.253L2.97 2.971l1.448.353a.21.21 0 0 0 .253-.153l.01-.04a.21.21 0 0 0-.153-.254l-1.417-.348Z" fill="#09F" />
  </svg>