<?xml version="1.0" encoding="UTF-8"?>
<svg xmlns="http://www.w3.org/2000/svg" width="55" height="55" viewBox="0 0 55 37"><g fill="#fc0" fill-rule="evenodd">
      <path d="M26.686 6.492V.938a.938.938 0 0 1 1.876 0V6.51a11.882 11.882 0 0 0-1.876-.017zM33.824 8.3l3.234-4.45a.938.938 0 1 1 1.518 1.102L35.32 9.434A11.776 11.776 0 0 0 33.824 8.3zm4.597 5.558l5.214-1.694a.938.938 0 1 1 .58 1.785l-5.243 1.703a11.64 11.64 0 0 0-.55-1.794zm.48 7.177L44.33 22.8a.938.938 0 1 1-.58 1.785l-5.446-1.77c.245-.57.446-1.165.599-1.779zm-3.76 6.075l3.264 4.492a.938.938 0 0 1-1.519 1.103l-3.264-4.493a11.768 11.768 0 0 0 1.52-1.102zm-6.579 2.768v5.57a.938.938 0 1 1-1.876 0v-5.553a11.901 11.901 0 0 0 1.876-.017zm-7.135-1.657l-3.107 4.276a.938.938 0 1 1-1.519-1.103l3.106-4.274c.475.406.984.774 1.52 1.1zm-4.739-5.511l-5.06 1.644a.938.938 0 0 1-.58-1.785l5.06-1.644c.146.615.341 1.211.58 1.785zm-.558-7.342l-4.967-1.614a.938.938 0 1 1 .58-1.785l4.983 1.619a11.64 11.64 0 0 0-.596 1.78zm3.866-6.176l-3.08-4.24a.938.938 0 1 1 1.518-1.103l3.093 4.257c-.54.321-1.052.685-1.53 1.086z" fill-rule="nonzero" />
      <path d="M27.5 27.7a9.5 9.5 0 1 0 0-19 9.5 9.5 0 0 0 0 19z" />
    </g>
  </svg>