<?xml version="1.0" encoding="UTF-8"?>
<svg xmlns="http://www.w3.org/2000/svg" width="55" height="55" viewBox="0 0 16 16"><path d="M4.78 0a3.74 3.74 0 0 0-1.466.289 3.78 3.78 0 0 0-1.21.79 3.73 3.73 0 0 0-.814 1.169c-.193.44-.29.914-.29 1.423a3.604 3.604 0 0 0 .786 2.247c.07.092.146.158.226.2.085.036.17.055.255.055a.555.555 0 0 0 .368-.131.5.5 0 0 0 .19-.33c.02-.137-.025-.275-.134-.412a2.544 2.544 0 0 1-.587-1.63c0-.48.12-.916.361-1.305a2.709 2.709 0 0 1 2.314-1.286c.477 0 .91.11 1.302.33.392.22.708.516.949.887.245.371.38.788.403 1.25v.138c.014.165.07.291.17.378.1.083.22.124.36.124.152 0 .282-.046.39-.137a.483.483 0 0 0 .177-.351.427.427 0 0 0 0-.11c0-.041-.002-.082-.007-.124a3.455 3.455 0 0 0-.566-1.76A3.72 3.72 0 0 0 6.612.462 3.733 3.733 0 0 0 4.78 0Zm6.758 15.63c.995-.348 1.783-.854 2.364-1.518.58-.66.931-1.437 1.054-2.33.123-.894-.012-1.866-.403-2.915l-.574-1.547c-.287-.76-.695-1.294-1.224-1.601-.524-.312-1.111-.36-1.762-.144a1.202 1.202 0 0 0-.658-.413 1.39 1.39 0 0 0-.814.055 1.802 1.802 0 0 0-.524.282 1.364 1.364 0 0 0-.7-.454 1.356 1.356 0 0 0-.85.042c-.137.05-.262.114-.375.192l-.729-1.945c-.165-.445-.436-.754-.814-.928-.372-.174-.773-.186-1.203-.035-.439.156-.745.42-.92.79-.174.367-.18.77-.014 1.21L5.31 9.5c.014.042.007.067-.021.076-.024.01-.047.002-.071-.02l-.694-.73a1.544 1.544 0 0 0-.679-.384 1.269 1.269 0 0 0-.736.041 1.465 1.465 0 0 0-.807.66c-.18.307-.196.653-.05 1.038.038.11.093.225.163.344.071.119.149.231.234.336l2.4 2.812c.924 1.077 1.931 1.78 3.021 2.11 1.09.334 2.246.284 3.468-.151Zm-.375-1.113c-.944.335-1.847.39-2.71.165-.864-.22-1.704-.8-2.52-1.739l-2.42-2.77a.977.977 0 0 1-.142-.24.378.378 0 0 1 .007-.296.408.408 0 0 1 .24-.213c.18-.06.352-.005.517.165l1.692 1.65c.136.137.27.22.403.247a.782.782 0 0 0 .396-.035.528.528 0 0 0 .326-.295.626.626 0 0 0 .007-.481L4.425 3.932a.436.436 0 0 1 .007-.337.455.455 0 0 1 .262-.227.434.434 0 0 1 .34.014c.104.05.18.137.226.261l1.777 4.743a.462.462 0 0 0 .262.282c.132.05.266.052.403.007a.491.491 0 0 0 .29-.255.442.442 0 0 0 .014-.378l-.63-1.684c.1-.087.21-.153.333-.2a.476.476 0 0 1 .396.008c.118.06.203.165.255.316l.58 1.526c.048.128.135.22.262.275.133.05.265.052.397.007a.497.497 0 0 0 .276-.248.425.425 0 0 0 .021-.378l-.439-1.182a.967.967 0 0 1 .333-.2.477.477 0 0 1 .389.014c.123.06.21.163.262.31l.382 1.017a.487.487 0 0 0 .269.282c.132.05.264.052.396.007a.496.496 0 0 0 .283-.248.44.44 0 0 0 .022-.385l-.241-.653c.269-.096.521-.046.757.151.24.197.444.523.609.977l.524 1.381c.32.862.44 1.648.36 2.358a3.267 3.267 0 0 1-.785 1.835c-.448.518-1.066.914-1.854 1.19Z" fill="#A8A8A8" />
  </svg>