<?xml version="1.0" encoding="UTF-8"?>
<svg xmlns="http://www.w3.org/2000/svg" width="55" height="55" viewBox="0 0 16 16"><path d="M10.864 5.405c.824 0 1.54-.534 1.814-1.28h2.681c.35 0 .641-.305.641-.687 0-.39-.291-.695-.641-.695h-2.68a1.94 1.94 0 0 0-1.815-1.288c-.833 0-1.549.542-1.823 1.288H.674A.68.68 0 0 0 0 3.438c0 .373.3.687.674.687H9.05a1.94 1.94 0 0 0 1.815 1.28Zm0-1.017a.943.943 0 0 1-.941-.958c0-.543.416-.958.94-.958.534 0 .933.415.933.958 0 .534-.4.958-.932.958ZM.64 7.677C.3 7.677 0 7.982 0 8.364c0 .381.3.686.641.686h2.772c.275.755.99 1.297 1.823 1.297.824 0 1.54-.542 1.815-1.297h8.283A.67.67 0 0 0 16 8.364a.67.67 0 0 0-.666-.687H7.051a1.948 1.948 0 0 0-1.815-1.28c-.832 0-1.548.534-1.823 1.28H.641Zm4.595 1.645a.943.943 0 0 1-.94-.958c0-.534.416-.95.94-.95.525 0 .933.416.933.95s-.408.958-.933.958Zm5.628 5.95c.832 0 1.54-.533 1.814-1.288h2.681c.35 0 .641-.305.641-.687 0-.381-.291-.686-.641-.686h-2.68c-.275-.746-.983-1.289-1.815-1.289-.833 0-1.54.543-1.823 1.289H.674a.678.678 0 0 0-.674.686c0 .382.3.687.674.687h8.367c.274.755.99 1.289 1.823 1.289Zm0-1.017a.943.943 0 0 1-.941-.958c0-.542.416-.958.94-.958.534 0 .933.416.933.958 0 .535-.4.958-.932.958Z" fill="currentColor" />
  </svg>